<?xml version="1.0" encoding="UTF-8"?>
<svg id="Layer_1" data-name="Layer 1" xmlns="http://www.w3.org/2000/svg" viewBox="0 0 1001.11 1001.26">
  <defs>
    <style>
      .cls-1 {
        opacity: .65;
      }

      .cls-2 {
        fill: none;
        stroke: teal;
        stroke-linecap: round;
        stroke-linejoin: round;
        stroke-width: 2px;
      }
    </style>
  </defs>
  <g class="cls-1">
    <path class="cls-2" d="m724.5,849.03c-4.16-7.47-11.37-11.39-18.56-14.89-11.75-5.71-24.02-10.22-36.95-12.6-12.77-2.35-25.59-3.37-39.33-.66,1.7-6.3,3.35-12.05,4.82-17.86,6.2-24.49,12.6-48.94,18.42-73.52,3.36-14.21,5.81-28.63,8.53-42.99.3-1.58-.35-3.34-.6-5.27-1.72.37-3.06.66-3.92.85-6.04,28.65-11.44,56.93-18.11,84.9-4.31,18.08-10.54,35.69-15.72,53.57-.62,2.15-.08,4.64-.08,6.98"/>
    <path class="cls-2" d="m719,464.53c1.95,1.1,3.46.65,5.56-.39,25.08-12.34,50.27-24.45,75.45-36.61,7.99-3.86,15.99-7.7,24-11.49,3.26-1.54,5.18-3.58,6.15-7.47,3.65-14.69-2.85-24.82-17.66-26.54-17.17-1.99-34.32-4.13-51.51-5.95-9.14-.97-18.35-1.14-27.48-2.15-5.42-.6-9.66,2.31-13.93,4.27-24.66,11.31-49.07,23.19-73.59,34.81-7.95,3.77-16.01,7.32-23.98,11.04-1.93.9-4.38,1.46-4.01,4.48"/>
    <path class="cls-2" d="m577,716.03c-11.67-2.17-23.29-4.6-35.01-6.44-21.47-3.37-42.98-6.47-64.5-9.52-8.63-1.23-17.38-1.71-25.97-3.16-4.89-.82-8.83.05-12.53,3.12-8.11,6.73-13.35,4.91-21.46.93-2.41-1.18-4.61-3.03-6.49-4.97-4.85-5-11.05-6.29-17.55-6.95-16.33-1.67-32.64-3.62-49.01-4.91-13.8-1.09-27.66-1.46-41.49-2.08-16-.71-32-1.34-48-2.01"/>
    <path class="cls-2" d="m824.5,33.53c-20.21-3.16-40.49-5.38-61-4.49-10.17.44-20.33,1.33-30.5,1.38-8.16.04-16.37-.61-24.48-1.55-2.62-.3-5.54-2-7.42-3.93-6.27-6.44-12.05-6.45-18.17.03-2.58,2.73-5.68,5.18-8.97,6.99-19.4,10.66-40.01,18.37-61.49,23.43-12.64,2.98-25.62,4.53-38.47,6.62-3.3.54-6.66.7-9.99,1.03"/>
    <path class="cls-2" d="m787,208.53c-10,10.32-17.19,22.41-23.09,35.46-3.95,8.74-7.17,17.53-9.1,27-1.88,9.25-2.23,18.34-.64,27.51.24,1.39,2.71,3.18,4.34,3.41,21.96,3.11,43.34,8.53,64.5,15.07,24.98,7.72,49.24,17.35,73.48,27.06,1.33.53,2.63,1.12,4.14,1.77.3-4.77.58-9.27.86-13.77"/>
    <path class="cls-2" d="m273.5,443.53c2.5-.83,4.94-2.03,7.51-2.43,7.64-1.19,15.33-2.04,22.99-3.08,7.17-.97,14.35-1.89,21.5-3.03,5.19-.83,10.32-2.06,15.51-2.94,8.32-1.42,16.66-2.71,25-4.01,6.66-1.04,13.32-2.06,20-2.99,7.66-1.06,15.32-2.11,23.01-2.94,1.61-.18,3.47.29,4.97.97,24.38,11.13,47.14,25.04,69.04,40.42,7.73,5.43,8.48,13.45,7.75,21.51-.4,4.45-3,8.73-4.8,13.01-2.42,5.73-8.16,5.98-13,6.88-9.58,1.78-19.33,2.69-28.97,4.16-10.02,1.53-19.98,3.51-30.01,4.91-9.29,1.29-18.66,2.05-27.99,3.07-9,.98-18,2.01-27,2.97-.64.07-1.33-.3-2-.47"/>
    <path class="cls-2" d="m732,109.03c24.08,10.95,48.74,20.28,74.5,26.49,11.32,2.73,22.61,5.62,34.02,7.92,7.91,1.59,16,2.3,24.41,3.46,13.51,19.69,31.11,35.89,48.15,52.55,9.36,9.15,19.47,17.55,29.48,26.01,3.4,2.87,4.08,5.81,3.58,10.09-.85,7.27-1.35,14.67-1.04,21.98,1.03,24.75,8.75,48.08,15.9,71.5"/>
    <path class="cls-2" d="m433,7.53c-7.67.5-15.47.26-22.97,1.64-20.41,3.75-40.69,8.19-61.03,12.36-7.3,1.5-13.15,5.82-18.42,10.58-14.88,13.43-29.75,26.9-43.98,41.01-15.74,15.59-30.81,31.86-46.05,47.95-3.57,3.77-6.64,8.02-10.01,12.12.29.84.63,1.84.97,2.84"/>
    <path class="cls-2" d="m193.5,514.03c-2.17.67-4.33,1.91-6.5,1.91-23.16.03-45.96,2.93-68.5,8.09-7.1,1.63-13.5,4.83-18.95,9.56-5.65,4.91-14.47,5.44-21.16,1.1-10.02-6.51-21.65-7.76-33.39-7.13-12.9.7-25.38,3.54-37.49,8.01-2.36.87-5.36,1.16-6.02,4.46"/>
    <path class="cls-2" d="m57.5,273.53c.5,1.33.67,2.97,1.55,3.95,7.58,8.42,15.07,16.92,22.99,25.01,24.39,24.94,49.1,49.57,73.38,74.62,7.45,7.69,19.88,6.77,26.77.63,24.18-21.54,49.11-42.25,73.84-63.18,4.98-4.22,10.31-8.03,15.62-12.14-28.68-38.06-60.93-73.33-87.65-112.89"/>
    <path class="cls-2" d="m40.5,102.53c2.17-.17,4.53.18,6.47-.58,30.02-11.76,60.95-20.58,92.04-28.9,8.12-2.17,16.27-4.31,24.52-5.89,3.47-.67,5.75-2.29,6.91-5.16,4.3-10.68,3.7-19.73-8.97-25.9-4.63-2.26-9.63-3.73-14.47-5.57"/>
    <path class="cls-2" d="m428,691.53c15.2-15.34,33.86-21.3,54.99-19.38,10.93,1,21.46,4.16,31.54,8.8,11.52,5.31,23.26,10.16,34.99,15.02,3.83,1.59,7.92,2.57,13.38,4.29-12.5-25.93-20.32-52.21-27.36-79.15-12.2.41-22.36-6.3-33.52-9.67-15.12-4.56-30.21-6.91-45.51-1.37-8.43,3.05-15.84,7.87-23.16,16.43-2.19,21.12-4.6,44.32-7,67.51,3.8,1.54,7.47,3.03,11.14,4.52"/>
    <path class="cls-2" d="m750.5,713.53c-6-3.83-11.64-8.46-18.07-11.34-14.38-6.44-29.58-10.1-45.43-10.64-.51-.02-1.02.21-1.79.38-2.84,13.54-5.67,27.04-8.56,40.82,22.62,1.14,43.01,7.97,61.73,21.21,4.09-13.5,8.1-26.71,12.11-39.93"/>
    <path class="cls-2" d="m927,690.53c.83,3.17,1.29,6.49,2.56,9.47,11.23,26.38,22.66,52.67,33.92,79.03,7.6,17.79,15.21,35.58,22.42,53.53,2.77,6.89,8.59,6.52,14.1,7.46"/>
    <path class="cls-2" d="m262.5,667.53c5.16,5.38,12.15,4.9,18.5,4.83,16.51-.17,33-1.23,49.5-1.81,19.97-.71,39.88-.52,58.99,6.51,10.18,3.74,19.46,9.01,26.94,17.04.34.36-.27,1.61-.44,2.44"/>
    <path class="cls-2" d="m57.5,613.53c3.5,9.5,6.92,19.03,10.52,28.49,7.28,19.19,14.62,38.35,21.99,57.5,8.86,22.99,17.78,45.96,26.88,69.46-5.83,3.71-11.74,7.19-17.36,11.08-21.06,14.58-42.1,29.2-62.98,44.03-5.8,4.12-12.46,6.94-17.31,12.72-1.94,2.31-6.69,2.49-10.26,3.13-2.58.46-5.32.09-7.98.09"/>
    <path class="cls-2" d="m602.5,514.03c-3.4,7.65-3.99,15.46-1.51,23.5,1.97,6.4,3.74,7.95,10.51,8.49,25.83,2.03,51.67,3.96,77.5,6.03,19.84,1.59,39.66,3.4,59.51,4.91,4.13.31,8.33-.26,12.49-.43"/>
    <path class="cls-2" d="m426.5,694.53c-3.11,1-5.18.48-7.62-2.4-13.88-16.35-31.75-25.53-52.86-29.2-18.84-3.28-37.08-.3-55.55,2.93-13.25,2.32-26.8,3.56-40.93-1.7,17.28-20.58,34.35-40.91,51.45-61.28-2.77-2.46-4.38-1.13-6.01.63-.88.95-1.96,1.71-3.01,2.47-.06.04-.63-.62-.96-.95"/>
    <path class="cls-2" d="m426.5,693.03c-5.02-7.23-10.16-14.25-17.46-19.56-19.14-13.93-40.3-21.54-64.04-22.53-17.28-.72-33.44,3.82-49.48,9.16-5.59,1.86-10.64,1.86-15.77-1.55,17.4-21.52,34.7-42.91,52.05-64.37,8.68,2.67,17.81,3.51,27.2,2.41,9.3-1.09,18.65-2.03,28-2.48,14.26-.7,26,5.05,35.45,15.48,3.97,4.39,7.38,9.29,11.05,13.95"/>
    <path class="cls-2" d="m723,850.53c2.15-.29,4.31-.59,6.6-.9,1.73-6.77,3.48-13.96,5.42-21.1,5.29-19.51,10.63-39.01,15.99-58.5,5.64-20.51,11.32-41,17-61.5.79-2.86,2.42-4.54,5.46-5.6,16.96-5.9,34.09-5.25,50.99-.75,14.83,3.95,28.29,11.19,41.17,19.65,4.51,2.96,4.31,7.86,7.12,11.39.81,1.02-1.15,4.61-2.29,6.78-11.11,21.09-18.17,43.66-24.48,66.52-6.22,22.53-12.63,45.01-19,67.5-.49,1.72-1.31,3.34-1.98,5.01"/>
    <path class="cls-2" d="m145,29.03c-38.43,3.78-76.24,10.92-113.49,21.02-8.7,2.36-17.37,4.87-25.98,7.58-1.55.49-2.7,2.24-4.03,3.4"/>
    <path class="cls-2" d="m781,1000.03c-22.33-15.5-44.82-30.79-66.89-46.65-5.48-3.93-11.26-3.85-17.11-4.27-16.38-1.17-32.75-.4-48.98,2.03-5.4.81-10.4,1.36-15.58-.98-1.6-.72-4.37-.48-5.86.48-6.18,3.98-13.34,3.83-20.09,5.34-17.8,3.97-35.66,7.68-53.49,11.57-5.05,1.1-10.06,2.43-14.98,3.63,3.06,9.83,6.02,19.34,8.98,28.85"/>
    <path class="cls-2" d="m576.5,710.03c-6.33-.67-12.74-.94-18.98-2.09-11.06-2.03-22.01-4.59-33.02-6.91-15-3.17-29.97-6.47-45.01-9.46-12.74-2.54-25.52-3.57-37.98,1.5-1.78.72-3.35,1.96-5.02,2.96"/>
    <path class="cls-2" d="m868.5,725.53c-3.67,6.67-8.3,12.99-10.82,20.06-7.66,21.49-14.55,43.26-21.67,64.94-5.92,18.03-11.73,36.09-17.67,54.41-12.46-7.13-24.97-12.53-38.8-15.11-10.85-2.02-21.61-2.87-32.53-2.24-5.02.29-10,1.27-15,1.94"/>
    <path class="cls-2" d="m665.5,676.03c-.83,6-1.34,12.07-2.56,17.99-3.49,16.87-7.1,33.72-10.98,50.5-5.17,22.37-10.63,44.68-15.94,67.01-.23.98-.27,2.01-.41,3.16,36.5-3.79,67.6,7.72,93.4,33.83"/>
    <path class="cls-2" d="m537.5,624.53h3.12c9.14,26.7,18.03,52.68,26.97,78.82-14.08-.28-27.68-4.54-41.06-9.41-11.99-4.36-23.55-9.73-35.99-13.07-22.78-6.11-42.43-.78-60.04,14.15"/>
    <path class="cls-2" d="m728,125.03c-1.8,1.25-3.6,2.5-5.21,3.62,6.48,22.34,17.91,40.71,33.74,56.35,8.79,8.68,18.55,16.36,29.58,21.81,7.09,3.5,15.15,5.17,22.91,7.16,15.11,3.87,30.25,7.73,45.51,10.94,9.53,2,19.3,2.85,28.98,4.11,10.82,1.4,21.65,2.87,32.51,3.94,5.96.59,11.99.37,17.99.62,1.01.04,2,.63,3,.96"/>
    <path class="cls-2" d="m837,822.03c-3.33,11.33-6.69,22.66-9.99,34-1.5,5.17-2.89,10.36-4.47,16.05-4.03-2.46-7.69-4.93-11.56-7.02-13.08-7.1-27.33-10.33-41.99-11.42-10.29-.76-20.67-.26-30.99-.75-2.54-.12-5.01-1.87-7.51-2.87"/>
    <path class="cls-2" d="m335.5,759.03c-9.32-5.9-19.6-8.84-30.5-10.03-8.47-.92-16.99-1.84-24.79-6.65-34.68,21.51-71.15,39.91-109.43,56.21,4.71,5.4,10.44,8.1,16.73,9.39,12.45,2.56,24.97,4.8,37.49,7.05,17.83,3.2,33.33,10.12,43,26.52,6.02,10.21,7.69,21.03,4.48,32.5-.85,3.04-1.9,6.03-2.95,9.33,1.16.73,2.49,1.56,3.82,2.4v-1.02c2.39-.4,4.76-.81,7.14-1.21"/>
    <path class="cls-2" d="m474.5,192.03c8.98-5.86,18.97-8.69,29.5-10.01,8.76-1.1,17.72-1.52,25.9-6.75,34.64,21.43,71.2,39.67,109.15,56.2-4.38,5.77-10.37,8.11-16.58,9.46-10.92,2.36-21.98,4.09-32.98,6.1-15.55,2.85-30.77,6.59-41.46,19.53-10.46,12.66-15.96,26.53-9.13,43.01.52,1.25-.29,3.04-.52,4.88-9.07-3.72-17.04-7.69-25.43-10.29-16.18-5.02-30.84-.21-43.3,10.06-8.49,7-15.93,15.44-23.03,23.91-6.94,8.29-14.82,14.95-24.63,19.39"/>
    <path class="cls-2" d="m170,489.53h13.39c-5.1-9.44-12.68-16.98-21.28-23.88-15.18,3.53-30.1,8.78-43.09,18.41-14.57,10.81-24.3,24.84-27.51,42.97-.26,1.48-.35,3-.51,4.5"/>
    <path class="cls-2" d="m831,429.53c-30.61,13.23-61.02,26.86-90.5,42.51-11.85,6.29-23.77,12.48-35.45,19.08-4.58,2.59-4.32,7.99-4.93,12.43-.7,5.16.11,10.3,2.81,15.02.62,1.08.4,2.63.57,3.96"/>
    <path class="cls-2" d="m938.5,224.03c-.24,3.15-.48,6.3-.81,10.53-24.35,26.41-30.09,61.26-36.49,95.86,10.65,4.22,21.01,8.33,32.01,12.69-.43-2.16-1.01-4.1-1.18-6.08-.9-10.16-2.13-20.32-2.39-30.5-.2-7.82,1.02-15.66,1.32-23.5.45-11.63,3.19-22.82,6.08-33.99.88-3.41,2.29-6.68,3.46-10.01"/>
    <path class="cls-2" d="m864.5,150.03c-3.8,6.98-10.78,9.89-18.51,8.02-29.15-7.05-58.33-14-87.49-21.03-11.51-2.78-23-5.66-34.5-8.49"/>
    <path class="cls-2" d="m270,444.03c27.29,10.44,54.34,21.41,79.5,36.51,6.1,3.66,12.09,7.9,12.82,15.51.57,5.96-1.62,11.78-3.59,17.56-1.23,3.61-3.11,5.54-6.72,7.45-11.03-5.11-22.29-10.26-33.5-15.54-17.53-8.28-35-16.66-52.51-24.97-1.96-.93-3.99-1.68-5.99-2.51"/>
    <path class="cls-2" d="m693,27.53c.17.83.07,1.88.54,2.47,10.99,13.78,25.64,20.38,42.96,20.95,12.99.42,26.02-.37,38.99.22,11.53.52,23.01,2.19,34.5,3.38.97.1,1.92.39,3.51.72-1.96-3.42-3.48-6.08-5.01-8.73"/>
    <path class="cls-2" d="m178,982.53c-7.5-2.5-14.84-5.81-22.54-7.3-10.85-2.1-21.96-3.92-32.96-3.96-18.57-.06-36.03,4.95-51.5,15.76-4.71,3.29-7.72,7.86-10,13.01"/>
    <path class="cls-2" d="m388,924.53c-13.9-6.1-22.72-17.62-32.19-28.84-10.8-12.79-23.49-23.42-41.3-25.77-10.31-1.36-19.37,1.82-28.53,5.58-4.92,2.02-9.99,3.7-14.99,5.53"/>
    <path class="cls-2" d="m688,33.03c-1.67,6.97-6.94,11.59-12.12,15.34-28.51,20.61-60.17,34.52-94.39,42.64-.12.03-.33-.31-.83-.81-.2-2.64-.43-5.65-.67-8.67"/>
    <path class="cls-2" d="m739,119.03c7.67,3,15.18,6.49,23.03,8.9,18.4,5.64,36.86,11.19,55.51,15.94,11.28,2.87,22.96,4.16,34.46,6.16,2,.35,4,.67,6,1"/>
    <path class="cls-2" d="m106,155.03c-1.33,2.83-2.59,5.71-4.01,8.49-16.11,31.48-32.45,62.85-45.02,95.99-1.22,3.2-2.85,6.25-4.2,9.17,4.24,6.46,16.98,8.15,24.35,1.48,15.42-13.96,31.09-27.71,47.5-40.48,17.8-13.85,36.56-26.46,54.84-39.71,1.29-.93,2.04-2.61,3.04-3.95"/>
    <path class="cls-2" d="m377.5,508.53c6.83-.83,13.67-1.61,20.5-2.51,8.67-1.14,17.33-2.38,26.83-3.69.88-3.98,1.84-8.32,2.98-13.49-16.7,2.39-32.52,4.65-48.2,6.89-.74,4.31-1.42,8.3-2.1,12.3"/>
    <path class="cls-2" d="m161,39.03c-9.33,2.67-18.61,5.56-28.01,7.95-16.45,4.18-33.06,7.79-49.47,12.13-13.61,3.6-27.02,7.92-40.52,11.92"/>
    <path class="cls-2" d="m584.5,477.53c16.33,4.88,33.36,3.44,50,5.49,15.33,1.89,30.68,3.59,45.99,5.55,7.36.94,14.67,2.29,22,3.46"/>
    <path class="cls-2" d="m572,73.03c.39,2.8.79,5.6,1.25,8.89,3.96-.57,8.67-.94,13.24-1.94,21.94-4.83,43.24-11.55,63.55-21.36,12.09-5.84,24.01-11.77,33.43-21.61,3.18-3.32,6.05-6.93,9.15-10.51,1.63.65,2.92.88,3.85,1.57,10.15,7.49,22.01,9.1,34.03,9.37,16.49.38,33,.16,49.5.07,11.67-.06,23.33-.47,35-.38,3.34.02,6.67,1.24,10,1.9"/>
    <path class="cls-2" d="m478,470.03c-14.17,1.67-28.35,3.18-42.49,5.04-13.69,1.8-27.36,3.83-41,6-8.87,1.42-17.67,3.32-26.51,4.92-1.29.23-2.66.03-3.99.03"/>
    <path class="cls-2" d="m435,8.03c-24,29-48,58-71.99,87-2.04,2.47-4.42,4.77-5.92,7.54-3.31,6.12-9.04,7.91-15.08,9.46-23.34,5.98-46.67,12-70,17.99-7.32,1.88-14.73,3.45-21.97,5.6-3.59,1.06-6.91,1.19-10.55.51-2.74-.52-5.66-.1-8.07-.1-7.63,9.27-8.59,17.32-3.41,25.5,3.42,5.39,5.19,6.1,11.5,4.5,11.67-2.97,23.34-5.97,36.08-9.22-.81,2.43-.98,4.71-2.18,6.14-1.95,2.32-4.39,4.35-6.93,6.04-7.42,4.93-13.88,10.65-17.47,19.05"/>
    <path class="cls-2" d="m690,27.53c-1.5.33-3.53.15-4.42,1.08-15.84,16.31-35.52,25.5-57.07,31.46-18.44,5.1-36.93,9.91-56.01,11.96-1.99.21-3.98.36-6,.54v-8.53"/>
    <path class="cls-2" d="m699,26.53c-.9.76-1.8,1.51-3.14,2.65,4.22,4.94,9.59,7.22,15.13,9.38,15.89,6.19,32.37,5.99,49.01,5.04,16.06-.92,32.13-1.4,48.01,2.36,4.38,1.04,8.98,1.14,14.6,1.8-3.46-3.69-6.29-6.71-9.12-9.72"/>
    <path class="cls-2" d="m736,857.03c-5.63-.42-10.65-1.73-15.08-5.91-12.7-11.98-29.02-16.31-45.43-20.01-7.9-1.78-16.04-2.46-23.97-4.15-9.33-2-18.39-.37-27.52,1.07"/>
    <path class="cls-2" d="m141.5,167.53c-3.07-3.61-6.14-7.21-9.54-11.2-3.44,5.32-6.73,10.91-10.5,16.17-7.85,10.94-15.78,21.83-23.99,32.5-14.28,18.56-25.86,38.74-36.44,59.54-.37.73-.36,1.65-.53,2.49"/>
    <path class="cls-2" d="m693,503.03c-7.17-.83-14.32-1.84-21.5-2.46-14.66-1.28-29.33-2.44-44-3.52-14.83-1.09-29.67-2.02-44.5-3.02"/>
    <path class="cls-2" d="m513,232.03c-13.57-10.22-26.57-21.37-43.01-26.97-9.37-3.19-16.36-1.58-21.68,5.83-6.12,8.52-11.27,17.15-12.88,28.24-3.44-.2-6.93-.57-10.43-.58-14-.02-28.19-.9-40.98,6.5-8.49,4.91-16.12,10.9-22.55,18.44-10.41,12.2-21.07,24.19-31.62,36.26.93,1.97,2.29,4.87,3.65,7.77"/>
    <path class="cls-2" d="m105.5,917.03c5.67,3,11.22,6.25,17.02,8.95,14.3,6.66,29.07,12.03,44.53,15.36-3.35,11.18-15.9,18.13-28.07,16.28-8.43-1.28-17-2.57-25.48-2.43-26.48.43-46.56,16.5-56.48,38.86-.85,1.92-1.36,3.99-2.02,5.99"/>
    <path class="cls-2" d="m479.5,864.53c-8.17-8.83-16.68-17.38-24.41-26.58-9.22-10.97-18.8-21.5-32.16-27.25-5.89-2.53-12.53-3.93-18.94-4.49-8.6-.75-17.32-.17-25.98-.21-1,0-2-.31-3-.48"/>
    <path class="cls-2" d="m135,14.03c-6.17.67-12.34,1.28-18.5,2.01-10.84,1.29-21.8,2.02-32.47,4.14-15.45,3.07-30.7,7.16-46.03,10.86-3.69.89-7.34,1.98-11,2.98"/>
    <path class="cls-2" d="m929,469.03c3.56,2.27,5,6.14,6.94,9.53,9.47,16.59,18.76,33.28,28.04,49.97,4.1,7.37,8.02,14.84,12.07,22.37,8.23-4.29,15.97-8.32,23.94-12.48v-2.4"/>
    <path class="cls-2" d="m79,274.03c12.17,13.67,24.2,27.45,36.54,40.96,10.81,11.84,21.75,23.57,33.02,34.97,9.53,9.64,19.6,18.73,29.44,28.06"/>
    <path class="cls-2" d="m769.5,704.53c-10.12-9.59-21.04-17.86-33.94-23.64-12.22-5.48-24.73-9.35-38.06-9.75-8.65-.26-17.36.25-25.99,1.01-4.64.41-8.18,3.33-10.01,7.88"/>
    <path class="cls-2" d="m435.5,239.03c35.9,24.72,71.74,49.51,106.33,76.32,2.38-2.11,5.02-4.47,7.67-6.82"/>
    <path class="cls-2" d="m299.5,796.53c7-4.83,13.8-10,21.06-14.4,6.55-3.97,13.33-7.91,20.52-10.38,7.71-2.64,14.83-1.88,20.66,6.11,6.23,8.54,10.91,17.33,13.04,28.04-6.93,4.88-13.89,9.7-20.77,14.64-26.18,18.81-52.34,37.66-78.51,56.48-1.27.92-2.66,1.68-3.99,2.51"/>
    <path class="cls-2" d="m1000,926.03c-15.27-12.13-32.9-12.27-51.19-10.22-13.36,19.49-31.28,34.74-47.36,51.67-2.1,2.21-4.95,3.72-7.45,5.55"/>
    <path class="cls-2" d="m939.5,235.53c.96,1.69,1.92,3.37,2.6,4.58-4.92,28.42-3.83,56.42.46,84.91,4.17,1.45,8.52,3.08,12.95,4.46,1.57.49,3.32.38,4.98.55"/>
    <path class="cls-2" d="m432,374.03c0-.5.21-1.28-.03-1.46-18.3-13.54-36.3-27.53-55.09-40.36-11.67-7.97-24.5-14.26-36.92-21.11-2.4-1.32-5.29-1.74-7.96-2.57"/>
    <path class="cls-2" d="m830,462.03c-27.33,13.5-54.66,27.02-82.01,40.49-10.97,5.4-22.2,10.3-32.92,16.15-6.9,3.76-13.33,4.53-21.12,3.11-13.17-2.4-26.61-3.4-39.96-4.71-15.48-1.51-30.99-2.86-46.5-3.98-7.47-.54-15-.48-22.5-.49-1.5,0-3.08.77-4.48,1.46-4.23,2.08-7.43.97-8.46-3.54-2.25-9.87-.56-19.32,4.59-27.91,1.62-2.7,4.86-4.42,7.36-6.58"/>
    <path class="cls-2" d="m442,41.03c-12,14.67-23.71,29.58-36.08,43.93-14.17,16.45-29.2,32.17-43.27,48.7-4.58,5.38-10.46,5.93-16.18,7.26-17.1,3.97-34.31,7.44-51.47,11.11"/>
    <path class="cls-2" d="m714,440.03c-4.9-4.28-11.26-4.11-17.02-4.82-17.44-2.15-34.97-3.66-52.48-5.11-8.47-.7-16.99-.73-25.49-1.06"/>
    <path class="cls-2" d="m177.5,188.03c-1.39-3.14-2.78-6.28-3.92-8.86-19.35,15.48-39.2,30.88-58.47,46.98-9.74,8.14-18.53,17.45-27.57,26.41-5.85,5.81-11.37,11.96-17.04,17.96"/>
    <path class="cls-2" d="m169.5,181.53c-2.47-4.93-4.93-9.87-7.5-15-10.19,14.63-25.03,24.81-38.35,36.67-9.29,8.28-17.56,17.82-25.55,27.41-10.41,12.49-20.1,25.58-30.1,38.42"/>
    <path class="cls-2" d="m156.5,172.53c-2.39-3.91-4.77-7.81-7.23-11.83-34.44,31.25-61.7,67.64-84.77,107.33"/>
    <path class="cls-2" d="m818,386.03c-32.67,16.33-65.33,32.67-97.99,49.02-.4.2-.67.65-1.01.98"/>
    <path class="cls-2" d="m64.5,876.53c3.55,10.36,1.63,16.44-10.99,20.54-15.97,5.2-26.46,15.83-29.93,32.48-1.97,9.48-.38,18.57,3.79,27.54,6.49,13.94,12.16,28.26,17.53,43.17-7.14-6.24-13.96-12.89-21.5-18.61-7.08-5.38-14.91-9.78-22.41-14.62"/>
    <path class="cls-2" d="m1000,983.03c-11.33-.67-22.66-1.83-34-1.89-19.59-.11-38.72,3.71-57.45,9.05-8.43,2.4-16.38,6.51-24.54,9.84"/>
    <path class="cls-2" d="m963,694.03c7,18.5,13.93,37.03,21.02,55.49,5.21,13.55,10.64,27.01,15.98,40.51"/>
    <path class="cls-2" d="m477,876.03c-7.33,3.17-14.97,5.77-21.95,9.6-25.3,13.88-47.9,31.7-70.56,49.4-1.97,1.54-3.95,3.08-6.43,5.02-28.93-21.17-59.6-39.62-92.07-55.02"/>
    <path class="cls-2" d="m35.5,458.53c3.94-22.34,14.04-41.47,31.13-56.35,6.98-6.08,15.43-10.48,23.5-15.84,16.7,25.25,37.61,45.15,59.13,65.2-6.49,3.01-12.4,5.7-18.25,8.49-15.39,7.34-28.2,17.74-36.94,32.53-5.97,10.1-10.14,20.79-7.16,32.99.24.99-.9,2.31-1.4,3.48"/>
    <path class="cls-2" d="m1000,443.03c-17.19-4.08-34.23-4.48-51,2.01-2.57.99-5.09,2.12-7.57,3.16,11.45,24.81,22.76,49.32,33.84,73.33,8.3-2.51,16.52-5.01,24.73-7.5"/>
    <path class="cls-2" d="m849,160.03c10.21,25.57,26.63,46.13,49.5,61.5,7.59,5.1,15.9,8.34,24.99,9.54.37.05.67.63,1,.96"/>
    <path class="cls-2" d="m524,318.03c-24.97,11.96-49.05,25.5-72,41.01-6.36,4.3-12.67,8.66-19,12.99"/>
    <path class="cls-2" d="m479,868.03c-3.83,1.33-7.85,2.29-11.47,4.06-22.92,11.21-44.36,24.83-64.49,40.49-6.05,4.71-11.61,10.07-17.51,15.23-7.31-2.58-13.89-6.07-19.55-11.27-6.95-6.39-13.92-12.76-21.03-18.97-2.42-2.11-5.29-3.71-7.96-5.54"/>
    <path class="cls-2" d="m331.5,300.53c30.86,12.92,58.88,30.4,83.99,52.52,4.6,4.05,9.1,8.23,13.43,12.57.75.75.42,2.58.58,3.92"/>
    <path class="cls-2" d="m717,446.03c3.05,6.13,4.12,12.42,1.29,18.97-1.37,1.09-2.85,2.28-4.33,3.47,0,.32-.01.63-.02.95-8.31-.63-16.63-1.21-24.93-1.9-9.34-.78-18.67-1.65-28-2.49-11.17-1-22.33-2.02-33.5-2.98-1.82-.16-3.66-.02-5.5-.02"/>
    <path class="cls-2" d="m709,462.03c-11.67-1.17-23.32-2.44-35-3.48-17.99-1.59-36-3.02-54-4.52"/>
    <path class="cls-2" d="m52,865.03c12.63,8.95,23.42,19.83,33.55,31.45,3.16,3.63,6.53,7.35,10.52,9.93,13.68,8.84,10.84,25.52,2.32,34.52-4.93,5.21-10.57,9.89-16.46,14-12.45,8.68-23.75,18.32-29.83,32.64-1.65,3.89-2.1,8.29-3.1,12.46"/>
    <path class="cls-2" d="m824,880.53c-8.83-4.5-17.36-9.81-26.58-13.3-12.12-4.59-24.94-7.06-37.92-8.21-7.17-.64-14.33-1.33-21.5-1.99"/>
    <path class="cls-2" d="m85,528.53c-7.13-5.15-14.32-10.55-23.03-12.35-10.37-2.14-20.93-3.88-31.48-4.44-9.61-.51-19.32.78-28.99,1.33-.18.01-.34.63-.5.96"/>
    <path class="cls-2" d="m844.5,477.03c-21.17,12.83-42.3,25.72-63.53,38.45-3.95,2.37-8.26,4.15-12.48,6.02-3.67,1.62-7.2,3.27-8.49,7.53"/>
    <path class="cls-2" d="m1000,623.03c-.33,1-.36,2.36-1.04,2.95-20.28,17.4-40.56,34.79-61.01,51.99-3.73,3.13-8.15,5.43-12.46,8.25.83,1.57,1.34,3.6,2.03,3.67,6.14.58,12.32.81,18.49,1.14"/>
    <path class="cls-2" d="m424,43.03c-13.67,15.83-27.34,31.66-41,47.5-9.34,10.83-18.67,21.67-28,32.5"/>
    <path class="cls-2" d="m1000,993.03c-13.83.33-27.67.74-41.5.98-12.48.21-24.51,2.92-36.5,6-.63.16-1.33.02-1.99.02"/>
    <path class="cls-2" d="m79.5,532.53c0-.83.33-2.18-.05-2.42-10.06-6.4-21.06-9.97-32.95-11.12-15.55-1.51-30.64.62-45.5,5.04"/>
    <path class="cls-2" d="m846,511.53c-23.66,12.09-46.56,25.49-68.5,40.5-.5.34-1.05.61-1.49,1.01-3.55,3.28-8.06,5.97-12.38,3.74-4.48-2.32-5.7-7.61-5.63-12.74"/>
    <path class="cls-2" d="m917,85.03c14.33,2.17,28.74,3.94,42.98,6.61,13.1,2.46,26.02,5.87,39.01,8.94.43.1.68.95,1.01,1.45"/>
    <path class="cls-2" d="m785,474.03c-26,13-52,26-77.99,39.02-.4.2-.67.65-1.01.98"/>
    <path class="cls-2" d="m869,732.53c-8.38,16.78-15.63,34.01-21,52-2.64,8.84-5.33,17.67-8,26.5"/>
    <path class="cls-2" d="m543,627.53c3.55.43,5.73,2.17,6.98,6.01,4.39,13.48,8.3,27.13,13.13,40.45,4.66,12.85,10.24,25.37,15.36,38.05.37.92.36,1.99.53,2.99"/>
    <path class="cls-2" d="m288,838.03c-3.73-10.65-11.82-17.42-20.42-24.1-13.77-10.71-29.47-16.7-46.1-20.84-1.73-.43-3.65-.06-5.49-.06"/>
    <path class="cls-2" d="m220,820.03c4.83,1.33,9.75,2.41,14.48,4.05,17.51,6.04,27.61,18.63,31.49,36.46,1.38,6.34,2.2,12.73-.48,18.99"/>
    <path class="cls-2" d="m1000,4.03c.4-1.73-.26-2.06-2-2.05-18.05.12-36.13-.25-54,3.05-4.66.86-9.36,1.53-13.98,2.57-1.76.4-3.35,1.6-5.02,2.43"/>
    <path class="cls-2" d="m78,15.03c-9.5,1.67-19.15,2.74-28.47,5.13-16.29,4.19-32.37,9.2-48.53,13.87"/>
    <path class="cls-2" d="m593.5,225.53c-22.45,3.19-41.91,12.89-58.95,27.56-5.62,4.84-10.16,10.71-12.55,17.94"/>
    <path class="cls-2" d="m258,872.03c.1-4.18-2.19-7.03-5.52-8.97-21.28-12.36-43.44-22.68-67.49-28.5-2.95-.71-5.99-1.03-8.99-1.53"/>
    <path class="cls-2" d="m589.5,253.53c-12.83,1.27-24.27,5.91-32.91,15.58-10.21,11.4-15.29,24.83-13.06,40.42.15,1.03.64,2,.98,3"/>
    <path class="cls-2" d="m308,828.03c-14.03-23.11-34.47-37.42-60.51-43.96-3.76-.94-7.66-1.37-11.49-2.04"/>
    <path class="cls-2" d="m628.5,256.03c.2,1.47.41,2.94.63,4.56-10.93,2.91-21.32,5.52-31.62,8.48-13.79,3.96-26.26,10.55-37.52,19.45-2.64,2.08-3.94,4.64-3.49,8.01"/>
    <path class="cls-2" d="m76,29.03c-8.33,2.17-16.74,4.1-24.99,6.55-15.72,4.66-31.35,9.6-47,14.49-1.1.34-2.01,1.29-3.01,1.96"/>
    <path class="cls-2" d="m253.5,863.53c1.22-2.43.41-4.51-1.53-5.96-5.25-3.94-10.41-8.08-16.02-11.46-13.23-7.98-28.04-11.73-42.95-15.11-3.9-.89-7.71-2.17-12.13-3.43.22-1.59.42-3.06.63-4.54"/>
    <path class="cls-2" d="m574,215.03c-9.88.45-19.03,3.61-28.01,7.48-18.52,8-32.59,21.19-43.99,37.52"/>
    <path class="cls-2" d="m167,490.53c-6.23-2.24-12.14.05-17.98,1.56-16.74,4.33-31.63,12.11-43.48,24.97-4.25,4.61-8.07,9.6-12.61,15.04-3.59-.17-7.76-.38-11.92-.58"/>
    <path class="cls-2" d="m865,157.03c7.23,13.04,17.03,24.07,27.54,34.46,10.8,10.69,22.72,20.01,35.97,27.52,1.42.81,2.99,1.35,4.49,2.02"/>
    <path class="cls-2" d="m905,245.03c-9.15,13.58-17.57,27.46-22.12,43.47-2.86,10.05-5.01,20.14-5.88,30.53"/>
    <path class="cls-2" d="m310.5,606.53c-17.67,21.33-35.35,42.65-52.97,64.02-2.35,2.85-4.36,5.98-6.53,8.98"/>
    <path class="cls-2" d="m634,265.53c-14.68,2.9-28.95,7.14-42.47,13.56-11.31,5.37-22.35,11.3-33.54,16.93-3.75,1.89-5.83,4.79-5.99,9.01"/>
    <path class="cls-2" d="m443.5,500.03c7.33-1,14.68-1.94,22-3.02,3.75-.56,6.15-6.84,4.19-12.36-8.09.85-16.4,1.72-24.63,2.59-.72,4.3-1.39,8.3-2.06,12.3"/>
    <path class="cls-2" d="m1000,77.03c-8.5-1.5-16.98-3.14-25.51-4.47-12.65-1.96-25.33-3.71-38-5.52-2.82-.4-5.67-.68-8.5-1.01"/>
    <path class="cls-2" d="m930.5,469.03c2.93-2.33,5.86-4.69,11.54-2.46,11.58,21.97,23.72,45,35.97,68.23,7.4-3.62,14.69-7.2,21.99-10.77"/>
    <path class="cls-2" d="m1000,90.03c-9.33-1.83-18.63-3.88-28.01-5.45-12.3-2.05-24.66-3.72-36.99-5.56-2.01-.3-4-.66-6-1"/>
    <path class="cls-2" d="m780,138.03c10.17,2.67,20.27,5.6,30.52,7.93,12.94,2.95,25.99,5.39,38.98,8.1.55.11,1.01.64,1.51.97"/>
    <path class="cls-2" d="m1000,967.03c-10.94-5.98-22.57-9.81-35-10.96-5.81-.54-11.67-.67-17.5-1.04-8.4-.54-15.68,1.28-22.63,6.85-14.14,11.33-28.32,22.53-40.35,36.18-.17.19-.02.65-.02.98"/>
    <path class="cls-2" d="m838,508.03c-17.33,9.83-34.71,19.58-51.97,29.54-6.16,3.56-12.03,7.62-18.03,11.46"/>
    <path class="cls-2" d="m99.5,398.03c2.77-1,5.55-2,9.09-3.28,18.15,24.4,37.07,47.87,59.83,68.92-1.96.82-3.19,1.34-4.42,1.85"/>
    <path class="cls-2" d="m409,888.03c-8.37-3.63-12.64-11.41-17.95-18.04-12.03-15.04-27.14-24.96-46.05-28.96"/>
    <path class="cls-2" d="m772,465.03c-14.83,7.5-29.59,15.16-44.53,22.43-7.31,3.56-14.97,6.4-22.47,9.57"/>
    <path class="cls-2" d="m465,274.03c-20.83,4.32-36.58,16.13-49.05,32.97-4.1,5.54-8.11,11.34-14.95,14.03"/>
    <path class="cls-2" d="m1.5,443.53c10,4.17,20.51,7.45,29.8,12.84,5.41,3.14,9.2,9.41,13.13,14.71,12.67,17.04,25.09,34.27,37.53,51.48,1.43,1.98,2.37,4.31,3.54,6.47"/>
    <path class="cls-2" d="m142,1.03c-7,.5-14.01.87-21,1.53-14.84,1.41-29.67,2.98-44.5,4.46-.83.08-1.67.01-2.5.01"/>
    <path class="cls-2" d="m845,754.03c-7.33-3.17-14.55-6.66-22.03-9.43-14.15-5.25-28.89-7.55-43.97-7.57"/>
    <path class="cls-2" d="m388,898.03c-6.17-7.33-11.86-15.14-18.61-21.89-11.28-11.3-25.38-17.72-40.9-21.08-.8-.17-1.66-.02-2.5-.02"/>
    <path class="cls-2" d="m484,288.03c-14.13,1.51-26.28,7.65-37.5,15.99-9.57,7.11-16.49,16.6-23.5,26.01"/>
    <path class="cls-2" d="m872,188.03c16.85,19.15,36.77,33.68,61.49,41.02.55.16,1.01.65,1.51.98"/>
    <path class="cls-2" d="m525,317.53c.17-.17.31-.37.51-.49.12-.07.33-.01.49-.01-.89-2.04-1.95-2.51-4.52-2.15-18.09,2.55-34.04,10.1-48.95,20.19-3.03,2.05-5.69,4.63-8.53,6.96"/>
    <path class="cls-2" d="m671,752.03c8,1.67,16.03,3.21,23.99,5.03,13.22,3.01,25.15,9.16,36.99,15.5.47.25.68.97,1.02,1.47"/>
    <path class="cls-2" d="m726,805.03c-11.65-7.02-24.15-12.07-37.52-14.37-8.04-1.38-16.31-1.46-24.48-2.13"/>
    <path class="cls-2" d="m975,57.03c-8.67-3.17-17.28-6.48-26.01-9.46-11.62-3.98-23.32-7.7-34.99-11.54"/>
    <path class="cls-2" d="m831,788.03c-14.82-6.93-30.08-12.37-46.5-14-4.84-.48-9.67-1-14.5-1.5"/>
    <path class="cls-2" d="m547,1.03c4.67,19.83,9.33,39.67,14.03,59.49.09.39.64.67.97,1.01"/>
    <path class="cls-2" d="m820,823.03c-12.46-7.81-26.1-12.47-40.51-14.95-6.45-1.11-12.99-1.71-19.49-2.55"/>
    <path class="cls-2" d="m813,838.03c-15.01-7.33-30.84-11.7-47.5-13-4.17-.33-8.33-.67-12.5-1"/>
    <path class="cls-2" d="m346,909.03c-15.11-13.57-32.93-21.79-52.52-26.43-2.21-.52-4.65-.07-6.98-.07"/>
    <path class="cls-2" d="m692,513.03c-19.67-2-39.33-4-59-6"/>
    <path class="cls-2" d="m400,60.03l-48,57"/>
    <path class="cls-2" d="m823,233.03c-15.08,13.72-24.45,30.99-31.01,50-.58,1.69-1.32,3.34-1.99,5"/>
    <path class="cls-2" d="m908,15.03c-.33,1.5-.47,3.08-1.03,4.49-2.48,6.11-1.89,12.15.66,17.96.67,1.53,2.71,2.8,4.4,3.48,6.6,2.68,13.34,4.98,19.95,7.63,1.98.8,3.69,2.28,5.52,3.44"/>
    <path class="cls-2" d="m1000,637.03c-18,15.33-36,30.67-54,46"/>
    <path class="cls-2" d="m676,440.03c-12.33-1.33-24.65-2.8-37.01-3.94-5.63-.52-11.33-.39-16.99-.56"/>
    <path class="cls-2" d="m120,448.03c-18.3,6.85-31.23,19.43-39.51,37-1.11,2.36-2.33,4.67-3.49,7"/>
    <path class="cls-2" d="m99,424.03c-6,3.83-12.2,7.39-17.96,11.56-10.54,7.62-16.37,18.67-21.07,30.43-.44,1.09-1.3,2.01-1.97,3.01"/>
    <path class="cls-2" d="m229,832.03c11.32,4.25,20.68,10.98,26.99,21.5,4.43,7.39,7.89,15.1,7.51,24"/>
    <path class="cls-2" d="m818,512.03c-12.17,7.33-24.36,14.62-36.49,22.02-5.25,3.2-10.35,6.64-15.51,9.98"/>
    <path class="cls-2" d="m296,132.03c-7.5,1.83-14.99,3.71-22.5,5.49-9.32,2.21-18.66,4.36-28,6.49-.79.18-1.66.02-2.49.02"/>
    <path class="cls-2" d="m581,265.03c-11.39,4.17-20.57,11.16-26.97,21.52-4.33,7.01-7.67,14.41-7.03,22.98"/>
    <path class="cls-2" d="m588,486.03c5.5.67,10.99,1.45,16.5,1.97,11.49,1.08,23,2.03,34.5,3.03"/>
    <path class="cls-2" d="m922,9.53c6.33,2.67,12.47,6.06,19.04,7.84,10.84,2.94,21.9,5.21,32.99,6.94,3.62.56,7.68-1.26,11.45-2.33,4.87-1.37,9.64-3.08,14.51-4.66v-2.29"/>
    <path class="cls-2" d="m52,500.03c-5.33-1.33-10.65-2.75-16-3.98-11.59-2.66-23.27-2.74-35-1.02"/>
    <path class="cls-2" d="m452,206.03c1.61-8.99,12.52-15.43,22.02-13.6,6.74,1.3,12.39,4.46,18,8.07,9.45,6.08,18.96,12.06,28.51,17.98,1.31.81,2.97,1.04,4.47,1.54"/>
    <path class="cls-2" d="m291,82.03c-13.17,13.33-26.31,26.69-39.51,39.99-3.07,3.09-6.32,6.01-9.49,9.01"/>
    <path class="cls-2" d="m305,484.03c16.33,8.83,32.67,17.67,49,26.5"/>
    <path class="cls-2" d="m50,615.53c-14.67,10.5-29.35,20.98-43.98,31.53-1.51,1.09-2.69,2.63-4.02,3.97"/>
    <path class="cls-2" d="m358,773.03c0-.83.33-1.89-.05-2.47-6.49-9.79-15.83-15.35-29.39-8.41-8.17,4.18-15.66,9.66-23.58,14.34-6.23,3.68-12.65,7.04-18.98,10.54"/>
    <path class="cls-2" d="m474,325.03c-4.83,3.33-9.93,6.35-14.43,10.08-5.61,4.66-10.79,9.86-16.05,14.93-5.17,4.97-11.63,7.64-18.01,10.48"/>
    <path class="cls-2" d="m136,20.03c-14.96,1.52-29.96,2.76-44.51,6.96-1.08.31-2.32.04-3.49.04"/>
    <path class="cls-2" d="m986,644.03c-7.67,6.67-15.28,13.4-23.02,19.98-7.93,6.75-15.98,13.35-23.98,20.02"/>
    <path class="cls-2" d="m762,158.03c5.67,12,11.2,24.16,21.07,33.42,4.23,3.97,9.26,7.08,13.93,10.58"/>
    <path class="cls-2" d="m967,35.03c-13-4.67-26-9.34-39-13.99-1.98-.71-4-1.34-6-2.01"/>
    <path class="cls-2" d="m266.5,472.03c15.17,8,30.33,16,45.5,24"/>
    <path class="cls-2" d="m433,41.03c-12.67,15-25.33,30-38,45"/>
    <path class="cls-2" d="m348,133.03c-15,3.33-30,6.67-45,10"/>
    <path class="cls-2" d="m1000,650.03c-.67,1-1.14,2.24-2.03,2.96-11.29,9.22-22.71,18.28-33.9,27.62-1.85,1.55-2.74,4.25-4.07,6.41"/>
    <path class="cls-2" d="m313,471.03c14.88,7.57,29.76,15.15,45.01,22.91.07,7.07-2.24,13.39-5.03,19.58-.86,1.9-1.98,3.68-2.98,5.51"/>
    <path class="cls-2" d="m639,957.03c13.67,14.33,27.33,28.67,41,43"/>
    <path class="cls-2" d="m137,987.03c-14.86.6-29.6,2.06-44,6"/>
    <path class="cls-2" d="m337,127.03c-7.67,2.33-15.24,5.04-23.02,6.92-14.93,3.61-29.98,6.75-44.98,10.08"/>
    <path class="cls-2" d="m1,697.03c2.76,8.53,5.51,17.05,8.19,25.34,14.73-12.46,29.36-24.84,44.14-37.35-2.84-7.82-5.86-16.14-8.92-24.58-15.77,9.89-30.71,20.83-43.42,34.59"/>
    <path class="cls-2" d="m822.5,37.53c-.51-2.29-1.02-4.59-1.53-6.88l.93-.66c-8.8-6.32-17.58-12.67-26.41-18.94-4.79-3.4-9.66-6.68-14.49-10.01"/>
    <path class="cls-2" d="m523.5,313.53c-2.83-.67-5.71-2.03-8.49-1.87-7.36.43-14.79,1.01-21.97,2.56-4.23.92-8.04,3.8-12.04,5.8"/>
    <path class="cls-2" d="m891,200.03c12.93,10.99,27.04,20.03,43,26"/>
    <path class="cls-2" d="m139,994.03c-14.33,1.33-28.67,2.67-43,4"/>
    <path class="cls-2" d="m329,887.03c-7.64-6.62-17.19-7.08-26.51-7.91-5.5-.49-11.24-1.87-16.49,1.41"/>
    <path class="cls-2" d="m668,445.03c-14.33-.83-28.67-1.67-43-2.5"/>
    <path class="cls-2" d="m176,246.03c-10.17,7.33-20.36,14.62-30.48,22.02-3.93,2.87-7.68,5.98-11.52,8.98"/>
    <path class="cls-2" d="m448,263.03c-16.2,4.15-30.19,12.16-42,24"/>
    <path class="cls-2" d="m363,830.03c9.6,3.43,19.3,6.61,27.51,12.99,4.79,3.72,9.66,7.34,14.49,11.01"/>
    <path class="cls-2" d="m169,236.03c-13.67,10.33-27.33,20.67-41,31"/>
    <path class="cls-2" d="m1000,953.03c-12.79-8.24-26.7-12.85-42-13"/>
    <path class="cls-2" d="m811,505.03l-42,24"/>
    <path class="cls-2" d="m650.5,491.53c11.33,1.17,22.67,2.32,34,3.51,2.51.26,5,.66,7.5.99"/>
    <path class="cls-2" d="m745,486.03c-9.67,4.67-19.32,9.36-29.01,13.99-3.63,1.74-7.33,3.34-10.99,5.01"/>
    <path class="cls-2" d="m622,507.03c-13.33-1.33-26.67-2.67-40-4"/>
    <path class="cls-2" d="m294,152.53c-1.33,2.67-2.21,5.73-4.1,7.91-3.3,3.81-7.22,7.1-10.9,10.58-6.24,5.91-12.5,11.79-18.73,17.66-.27-1.26-.74-3.48-1.37-6.4-2.61,1.32-5,2.53-7.4,3.74"/>
    <path class="cls-2" d="m184,254.03c-7.83,6-15.69,11.97-23.49,18.01-5.54,4.28-11.01,8.66-16.51,12.99"/>
    <path class="cls-2" d="m842,236.03c-11.23,11.53-19.55,24.87-25,40"/>
    <path class="cls-2" d="m1,790.03c2.83,7,5.58,14.04,8.53,20.99,2.71,6.39,5.64,12.68,8.47,19.01"/>
    <path class="cls-2" d="m86,934.03c-13.17,9.21-25.7,19.12-34.98,32.51-.5.72-.69,1.65-1.02,2.49"/>
    <path class="cls-2" d="m137,8.03c-13.17,1.5-26.33,3-39.5,4.5"/>
    <path class="cls-2" d="m824,441.03l-39,18"/>
    <path class="cls-2" d="m345,119.03c-11.83,3.33-23.67,6.67-35.5,10-1.17.33-2.33.67-3.5,1"/>
    <path class="cls-2" d="m976.5,25.53c-2.21,11.56-2.84,22.98,2.43,34.03.68,1.42.4,3.3.57,4.97"/>
    <path class="cls-2" d="m820,726.03c-5.33-1.33-10.6-3.21-16.02-3.87-7.27-.88-14.65-.8-21.98-1.13"/>
    <path class="cls-2" d="m373,468.03c-12.67-7-25.33-14-38-21"/>
    <path class="cls-2" d="m1000,453.53c-11.66-.06-23.33-.2-34.5,4.01-1.19.45-2.34.99-3.5,1.49"/>
    <path class="cls-2" d="m1,983.03c5,1.33,10.09,2.39,14.98,4.06,8.44,2.88,16.06,7.36,23.02,12.94"/>
    <path class="cls-2" d="m291,780.03c-11.78-5.39-24.39-7.67-37-10"/>
    <path class="cls-2" d="m966,65.03c-4.83-1-9.63-2.31-14.51-2.93-7.47-.94-14.99-1.41-22.49-2.07"/>
    <path class="cls-2" d="m556,203.03c-12.68,2.06-25.19,4.74-37,10"/>
    <path class="cls-2" d="m911,29.03c12.33,4,24.67,8,37,12"/>
    <path class="cls-2" d="m802,758.03c12.33,4.67,24.67,9.33,37,14"/>
    <path class="cls-2" d="m736,519.03c-3.29,10.5-4.15,21.15-2.06,32.01.24,1.25-.28,2.66-.44,3.99"/>
    <path class="cls-2" d="m729,518.03c-3.88,11.82-4.92,23.8-2,36"/>
    <path class="cls-2" d="m767,518.03c-9-.83-18-1.65-27-2.51-3-.29-6-.66-9-.99"/>
    <path class="cls-2" d="m180,990.03c-8.67-.83-17.33-1.71-26-2.48-3.32-.3-6.66-.35-10-.52"/>
    <path class="cls-2" d="m3,65.03c8.83,1.83,17.61,4.08,26.51,5.41,14.24,2.12,21.38,18.56,10.3,30.93-5.05,5.63-12.8,6.36-20.31,4.65-5.52-1.25-11-2.65-16.5-3.98"/>
    <path class="cls-2" d="m1.5,71.53c12,2.83,24,5.67,36,8.5"/>
    <path class="cls-2" d="m796,461.03c-6.67,3.33-13.33,6.67-20,10l-16,8"/>
    <path class="cls-2" d="m91,447.03c-10.14,5.88-14.05,16.33-18.98,26.01-1.15,2.26-2.02,4.66-3.02,6.99"/>
    <path class="cls-2" d="m1000,1000.03h-34"/>
    <path class="cls-2" d="m351,444.03c11.33,6.67,22.67,13.33,34,20"/>
    <path class="cls-2" d="m273,151.03c-9.17,2.33-18.34,4.65-27.5,7.01-2.19.57-4.34,1.32-6.5,1.99"/>
    <path class="cls-2" d="m87,1.03c-6.68.35-13.35.7-19.8,1.04-5.42,12.54-23.44,14.8-33.04,3.46h8.85"/>
    <path class="cls-2" d="m154,956.53c12.46,7.79,24.29,16.33,33.53,27.98.27.35.97.36,1.47.52"/>
    <path class="cls-2" d="m409,835.03c-8.35-5.97-17.03-11.21-27.5-12.49-1.83-.22-3.67-.34-5.5-.51"/>
    <path class="cls-2" d="m434,255.03c-12.17.31-22.56,5.2-32.01,12.49-.29.22-.66.34-.99.51"/>
    <path class="cls-2" d="m27.5,4.03c-6.67-.5-13.33-.99-20-1.5-1.84-.14-3.67-.33-5.5-.5"/>
    <path class="cls-2" d="m34,1000.03c-7.33-3.98-15.56-4.43-23.51-5.96-3.12-.6-6.32-.71-9.49-1.04"/>
    <path class="cls-2" d="m33,92.03c-7.17-2-14.31-4.09-21.51-5.96-3.44-.89-6.99-1.37-10.49-2.04"/>
    <path class="cls-2" d="m962,78.03c-6.17-1.33-12.3-2.9-18.51-3.92-4.43-.73-8.99-.74-13.49-1.08"/>
    <path class="cls-2" d="m303,475.03c10.67,5.67,21.33,11.33,32,17"/>
    <path class="cls-2" d="m365,441.03c10.67,6.33,21.33,12.67,32,19"/>
    <path class="cls-2" d="m584.5,479.53c-6.15,7.8-8.39,16.75-7.41,26.49.18,1.73,1.57,3.34,2.41,5.01"/>
    <path class="cls-2" d="m619.5,465.03c-10,3.33-20,6.65-29.98,10.04-.45.15-.68.96-1.02,1.46"/>
    <path class="cls-2" d="m831.5,430.53c-.17,1.33-.24,2.69-.51,4-1.83,8.78-4.67,17.52-.96,26.49.17.4.65.68.98,1.01"/>
    <path class="cls-2" d="m661,450.03c8.5,1,17,1.98,25.5,3.02,1.85.23,3.67.65,5.5.98"/>
    <path class="cls-2" d="m272,453.03c9.67,4.17,19.33,8.34,29.01,12.49.62.27,1.33.35,1.99.51"/>
    <path class="cls-2" d="m31,472.03c-7.04-5.04-15.25-5.88-23.5-6.45-2.14-.15-4.33.29-6.5.45"/>
    <path class="cls-2" d="m1000,465.53c-10.92.06-21.14,3.04-31,7.5"/>
    <path class="cls-2" d="m827,803.03c-9.77-5.26-19.92-9.44-31-11"/>
    <path class="cls-2" d="m31,620.03c-10,7.67-20,15.33-30,23"/>
    <path class="cls-2" d="m842,479.53c-.67,5.17-1.06,10.39-2.07,15.49-1.21,6.1.2,11.18,4.57,15.51"/>
    <path class="cls-2" d="m351,515.53c-10.33-5.17-20.67-10.33-31-15.5"/>
    <path class="cls-2" d="m617,429.03c-3.37,1.06-1.31,3.68-.86,4.95,3.02,8.52,2.37,16.47-2.59,24.08-.38.58-.05,1.63-.05,2.47"/>
    <path class="cls-2" d="m942,32.03c8.83,3,17.66,6.01,26.5,8.99,1.15.39,2.33.67,3.5,1.01"/>
    <path class="cls-2" d="m934,54.03c-3.5-.16-7-.33-11.65-.54.22,1.73.46,3.39.64,5.04.86,7.8,2.79,15.67-1.94,23.04-.45.71-.06,1.96-.06,2.96"/>
    <path class="cls-2" d="m71,930.03c-10.31,6.83-19.03,15.27-26.03,25.48-.45.65-1.3,1.02-1.97,1.52"/>
    <path class="cls-2" d="m383,99.03c-8.33,10-16.67,20-25,30"/>
    <path class="cls-2" d="m17,613.53c6.26,4.89,13.43,3.67,20.5,2.99,3.17-.3,6.33-.66,9.5-.99"/>
    <path class="cls-2" d="m306,770.03c-9.3-5.3-19.41-7.74-30-8.5"/>
    <path class="cls-2" d="m535,194.03c-7.33,1.67-14.72,3.15-21.97,5.09-2.82.76-5.36,2.57-8.03,3.91"/>
    <path class="cls-2" d="m1,90.03c7.67,2,15.34,3.97,23,6.02,2.03.54,4,1.31,6,1.98"/>
    <path class="cls-2" d="m459,346.03c-9.17,7.5-18.51,14.75-29.5,19.5"/>
    <path class="cls-2" d="m824,457.03c-10.24,3.05-19.92,7.36-29,13"/>
    <path class="cls-2" d="m29.5,7.53c-5.5,2-10.99,4.03-16.5,5.99-2.98,1.06-6.05,1.89-8.97,3.08-1.01.41-1.69,1.6-2.53,2.43"/>
    <path class="cls-2" d="m351,913.03c9.17,7.5,18.51,14.75,29.5,19.5"/>
    <path class="cls-2" d="m235,136.53c-.67,4.17-1.99,8.36-1.84,12.49.2,5.69,1.51,11.34,2.34,17.01"/>
    <path class="cls-2" d="m792,521.03c-9.33,5.67-18.67,11.33-28,17"/>
    <path class="cls-2" d="m832,169.03c3.83,9.59,7.88,19.07,14.02,27.49.2.27.65.35.98.51"/>
    <path class="cls-2" d="m651,449.03c-9.67-.17-19.33-.33-29-.5"/>
    <path class="cls-2" d="m778,259.03c-4.94,8.68-7.98,17.91-8,28"/>
    <path class="cls-2" d="m373,748.03c6.27,8.29,9.07,17.81,10,28"/>
    <path class="cls-2" d="m258.5,287.03c-5.75,8.83-6.84,18.39-4.5,28.5"/>
    <path class="cls-2" d="m29,16.03c-9.33,3-18.67,6-28,9"/>
    <path class="cls-2" d="m437,181.03c-5.81,8.45-8.8,17.9-10,28"/>
    <path class="cls-2" d="m349,110.53c-.65,8.8-.62,17.44,4.94,25.05.48.65.06,1.95.06,2.95"/>
    <path class="cls-2" d="m650,520.03c-2.58,8.35-1.98,16.95-1.96,25.5,0,.5.62,1,.96,1.5"/>
    <path class="cls-2" d="m930,957.53c-5,1.33-10.09,2.41-14.97,4.08-4.29,1.46-8.36,3.59-12.53,5.42"/>
    <path class="cls-2" d="m429,26.03l-24,27"/>
    <path class="cls-2" d="m826,503.03c-8.33,4.5-16.66,9.01-25.01,13.48-.59.31-1.32.35-1.99.52"/>
    <path class="cls-2" d="m839,277.03c-2.33,9-4.67,18-7,27"/>
    <path class="cls-2" d="m644,520.03c-2.46,8.92-2.85,17.92-1,27"/>
    <path class="cls-2" d="m391,275.03c-2.67,2.83-5.75,5.38-7.91,8.56-4.13,6.09-10.06,9.77-16.09,13.44"/>
    <path class="cls-2" d="m168,491.03c9.33,7.83,18.67,15.67,28,23.5"/>
    <path class="cls-2" d="m630.5,246.53c-8.49,3.47-17.12,6.32-26.5,5.5"/>
    <path class="cls-2" d="m419,842.03c2.83,3,5.96,5.78,8.43,9.05,4.21,5.58,9.62,9.54,15.57,12.95"/>
    <path class="cls-2" d="m296,480.03c-8.83-4.17-17.67-8.33-26.5-12.5"/>
    <path class="cls-2" d="m179.5,813.53c8.46,3.65,17.13,6.24,26.5,5.5"/>
    <path class="cls-2" d="m44,370.03c-.33-2.5-.89-4.99-.96-7.5-.17-6.55-7.09-12.81-14.04-12.5"/>
    <path class="cls-2" d="m692,772.03c-6.33-1.33-12.65-2.75-19.01-3.96-2.28-.43-4.66-.38-6.99-.54"/>
    <path class="cls-2" d="m432.5,14.03c.5,4.67.92,9.34,1.52,14,.58,4.53,2.6,8.39,5.98,11.5"/>
    <path class="cls-2" d="m860,243.03c-5.67,8-11.33,16-17,24"/>
    <path class="cls-2" d="m920,1.03c-8.79,1.96-17.3,4.68-25,9.5"/>
    <path class="cls-2" d="m173,162.03c6.3,5.72,11.45,12.21,14.04,20.49.39,1.25,1.29,2.35,1.96,3.51"/>
    <path class="cls-2" d="m743.5,424.53c3.07,5.54,6.43,10.99,6.94,17.5.18,2.31-.28,4.66-.44,7"/>
    <path class="cls-2" d="m739.5,426.53c5.99,7.15,7.24,15.56,6.5,24.5"/>
    <path class="cls-2" d="m841,475.53c-8-1.33-16-2.67-24-4"/>
    <path class="cls-2" d="m794,401.03c5.12,7.22,7.79,15.05,6,24"/>
    <path class="cls-2" d="m991,63.03c-.17,0-.36-.06-.5,0-10.19,4.65-18.9-1.05-28.01-3.99-2.46-.79-4.99-1.35-7.49-2.02"/>
    <path class="cls-2" d="m798,399.03c3.14,5.3,6.11,10.67,6.48,17,.13,2.33.02,4.67.02,7"/>
    <path class="cls-2" d="m817,189.03c7.33,7.33,14.67,14.67,22,22"/>
    <path class="cls-2" d="m168.5,201.03c7.55,3.5,15.46,3.57,23.5,2.5"/>
    <path class="cls-2" d="m260,146.03c-4.83,1.33-9.66,2.7-14.5,3.99-2.81.74-5.66,1.35-8.5,2.01"/>
    <path class="cls-2" d="m657,1.03c6.67,7.67,13.33,15.33,20,23"/>
    <path class="cls-2" d="m59,438.03c-5.64,4.88-6.59,12.05-8.97,18.51-.53,1.43-.7,2.99-1.03,4.49"/>
    <path class="cls-2" d="m38.5,75.53c-.17,1.67-.71,3.4-.43,4.99,1.15,6.72-.16,12.95-2.99,19.04-.51,1.1-.07,2.63-.07,3.97"/>
    <path class="cls-2" d="m861,160.03c2.73,9.15,9.15,15.89,15,23"/>
    <path class="cls-2" d="m294,472.03c-7.67-3.83-15.33-7.67-23-11.5"/>
    <path class="cls-2" d="m1,926.03c4.33,3.5,8.81,6.85,12.95,10.55,3.07,2.74,5.71,5.95,8.55,8.95"/>
    <path class="cls-2" d="m726,787.03c-6.06-6.21-13.82-9.03-22-11"/>
    <path class="cls-2" d="m576.5,884.53c3.51,2.81,7.03,5.62,9.64,7.71.52,4.52.94,8.15,1.36,11.79"/>
    <path class="cls-2" d="m586,863.03l-.48,5.96c-1.98,6.78-3.67,14.16-12.52,15.54"/>
    <path class="cls-2" d="m1000,480.03c-4.17,1-8.45,1.68-12.46,3.1-3.34,1.18-6.37,3.23-9.54,4.9"/>
    <path class="cls-2" d="m1000,643.03c-7.33,6.33-14.67,12.67-22,19"/>
    <path class="cls-2" d="m258,876.03c2.31,10.21,8.14,14.67,17,13"/>
    <path class="cls-2" d="m784,790.03c-5.17-.67-10.33-1.39-15.5-1.97-1.81-.2-3.66-.03-5.5-.03"/>
    <path class="cls-2" d="m639,980.03c6,6.67,12,13.33,18,20"/>
    <path class="cls-2" d="m31,407.03c-3.77,6.25-5.28,12.84-3,20"/>
    <path class="cls-2" d="m662.5,149.03c-1.33,8.56,2.39,15.03,8.5,20.5"/>
    <path class="cls-2" d="m828,427.53c-7-.67-14-1.33-21-2"/>
    <path class="cls-2" d="m856,158.53c2.29,7.57,5.56,14.62,11,20.5"/>
    <path class="cls-2" d="m859,289.03c-1.33,6.67-2.67,13.33-4,20"/>
    <path class="cls-2" d="m979.5,80.53c6.83,1.17,13.67,2.33,20.5,3.5"/>
    <path class="cls-2" d="m19,480.03c6.73,1.39,13.85,1.28,20,5"/>
    <path class="cls-2" d="m498,232.03c-6.3,5.13-11.65,10.96-14,19"/>
    <path class="cls-2" d="m802,226.03c-5.67,6.67-11.33,13.33-17,20"/>
    <path class="cls-2" d="m706,443.03c-6.67-.67-13.33-1.33-20-2"/>
    <path class="cls-2" d="m312,799.03c6.96,4.79,10.94,11.93,15,19"/>
    <path class="cls-2" d="m552,309.03c-.88,8.53-6.04,13-15,13"/>
    <path class="cls-2" d="m932,29.03c-6.67-2-13.33-4-20-6"/>
    <path class="cls-2" d="m831,729.03c6.33,3.33,12.67,6.67,19,10"/>
    <path class="cls-2" d="m547,975.03c2.33,5.67,4.66,11.34,7.02,16.99.17.4.65.68.98,1.01"/>
    <path class="cls-2" d="m410,191.03c3,5.63,3.57,11.8,4,18"/>
    <path class="cls-2" d="m714.5,446.53c0,1.17-.17,2.36.03,3.49.77,4.34,1.04,8.5-1.44,12.56-1.03,1.68-1.09,3.95-1.59,5.95"/>
    <path class="cls-2" d="m400,758.03c-1.33,6-2.67,12-4,18"/>
    <path class="cls-2" d="m791,757.03c-6.03-2.15-12.2-2.62-18.5-1.5"/>
    <path class="cls-2" d="m709,954.03c6,4.33,12,8.67,18,13"/>
    <path class="cls-2" d="m708.5,449.53c-6.17-.83-12.33-1.67-18.5-2.5"/>
    <path class="cls-2" d="m837,490.03c-6,3.67-12,7.33-18,11"/>
    <path class="cls-2" d="m317,54.03c-5.67,5.67-11.33,11.33-17,17"/>
    <path class="cls-2" d="m607,261.03l-18,3"/>
    <path class="cls-2" d="m962,930.03l18,6"/>
    <path class="cls-2" d="m55,928.03c-5.33,5.67-10.67,11.33-16,17"/>
    <path class="cls-2" d="m221,831.03l-18-3"/>
    <path class="cls-2" d="m18,617.03c-5.67,5-11.33,10-17,15"/>
    <path class="cls-2" d="m411,861.03c4.18,5.99,8.96,11.29,16,14"/>
    <path class="cls-2" d="m1000,25.03c-5.67,2.33-11.33,4.67-17,7"/>
    <path class="cls-2" d="m399,294.03c-4,6.19-8.95,11.29-16,14"/>
    <path class="cls-2" d="m971,668.03c-5.67,5-11.33,10-17,15"/>
    <path class="cls-2" d="m824,448.03c-5.67,2.33-11.33,4.67-17,7"/>
    <path class="cls-2" d="m680,1.03c5.67,5.33,11.33,10.67,17,16"/>
    <path class="cls-2" d="m661.5,157.03c-1.38,6.59-4.45,11.74-11.5,13.5"/>
    <path class="cls-2" d="m330,792.03c5.74,4.03,8.87,10.01,12,16"/>
    <path class="cls-2" d="m480,225.03l-12,15"/>
    <path class="cls-2" d="m766.5,557.03c-.33-1.33-.53-2.72-1.03-3.99-1.07-2.7-2.16-5.42-3.54-7.97-.58-1.06-1.93-1.7-2.93-2.54"/>
    <path class="cls-2" d="m1000,43.03c-5.33,2-10.67,4-16,6"/>
    <path class="cls-2" d="m1000,495.03c-5.33,2-10.67,4-16,6"/>
    <path class="cls-2" d="m957.5,44.53c5.17,1.5,10.33,3,15.5,4.5"/>
    <path class="cls-2" d="m1000,52.03l-15,6"/>
    <path class="cls-2" d="m25,461.03l-15-6"/>
    <path class="cls-2" d="m402,218.03c-4.28-4.01-8.81-7.56-15-8"/>
    <path class="cls-2" d="m165,595.03c.17,5,.33,10,.5,15"/>
    <path class="cls-2" d="m837,596.03c.33,5,.67,10,1,15"/>
    <path class="cls-2" d="m356,502.53l-15-7.5"/>
    <path class="cls-2" d="m16,613.03c-.5-.33-1-.67-2.03-1.35-3.94,4.4-7.95,8.88-11.97,13.35"/>
    <path class="cls-2" d="m1000,34.03l-15,6"/>
    <path class="cls-2" d="m107.5,157.53c4,4.67,8,9.33,12,14"/>
    <path class="cls-2" d="m637,235.03c-2.94,6.79-5.88,13.57-8.87,20.46-4.5,1.45-9.32,3-14.13,4.54"/>
    <path class="cls-2" d="m921,10.03c-4.43,1.11-8.86,2.22-13.29,3.33.01.07.02.14.04.21-3.75.99-7.53,1.86-11.23,3-2.95.91-4.73.54-4.51-3.04"/>
    <path class="cls-2" d="m423,777.03c-5.6,1.03-10.85,2.67-14,8"/>
    <path class="cls-2" d="m196,827.03c-4.82-1.54-9.64-3.08-13.92-4.45-3.1-7.02-6.09-13.78-9.08-20.55"/>
    <path class="cls-2" d="m191,168.03c2,4.67,4,9.33,6,14"/>
    <path class="cls-2" d="m906,845.03c.33,4.67.67,9.33,1,14"/>
    <path class="cls-2" d="m232,25.03c.33,4.67.67,9.33,1,14"/>
    <path class="cls-2" d="m41.5,336.03c-1.27,5.53-3.59,10.33-9,13"/>
    <path class="cls-2" d="m624,961.03c3.67,4.33,7.33,8.67,11,13"/>
    <path class="cls-2" d="m232,49.03c.33,4.67.67,9.33,1,14"/>
    <path class="cls-2" d="m906.5,869.03c.17,4.67.33,9.33.5,14"/>
    <path class="cls-2" d="m871,261.03c-2.33,4.67-4.67,9.33-7,14"/>
    <path class="cls-2" d="m1,77.03c4.33,1,8.67,2,13,3"/>
    <path class="cls-2" d="m42.5,336.03c1.33,2.83,2.58,5.71,4.02,8.49,1.76,3.4,4.73,4.73,8.48,4.51"/>
    <path class="cls-2" d="m279.5,143.03c1.06,5.08-.12,9.57-3.5,13.5"/>
    <path class="cls-2" d="m140.5,2.03c-.5,3.83-.94,7.68-1.52,11.5-.78,5.18.48,9.8,3.52,14"/>
    <path class="cls-2" d="m586.5,871.03c1,5.23,3.85,9.28,8,12.5"/>
    <path class="cls-2" d="m895,1.03c-4.67,5.33-9.33,10.67-14,16"/>
    <path class="cls-2" d="m161,365.03c-4.5.83-9,1.67-13.5,2.5"/>
    <path class="cls-2" d="m14,38.03c-4.33,1.67-8.67,3.33-13,5"/>
    <path class="cls-2" d="m15,412.03c1.67,4.33,3.33,8.67,5,13"/>
    <path class="cls-2" d="m815,283.03c-1,4.33-2,8.67-3,13"/>
    <path class="cls-2" d="m1,953.03c4,3.67,8,7.33,12,11"/>
    <path class="cls-2" d="m84,284.03c-4.17,1.83-8.33,3.67-12.5,5.5"/>
    <path class="cls-2" d="m88,289.03c-3.5,1.33-7.01,2.63-10.49,4.03-.75.3-1.35.97-2.01,1.47"/>
    <path class="cls-2" d="m712,456.03c-4.33-.33-8.67-.67-13-1"/>
    <path class="cls-2" d="m165,620.03v13"/>
    <path class="cls-2" d="m837.5,621.03c.17,4.33.33,8.67.5,13"/>
    <path class="cls-2" d="m933,335.03c4.16,1.51,8.32,3.02,12.63,4.59-.72-4.27-1.43-8.43-2.13-12.59"/>
    <path class="cls-2" d="m805,199.03c3.67,2.67,7.33,5.33,11,8"/>
    <path class="cls-2" d="m520,219.53c-3.84.29-7.67.57-11.29.84.78,3.12,1.54,6.14,2.29,9.16"/>
    <path class="cls-2" d="m44,1.03c1.3.72,2.6,1.45,4.15,2.31-.18.72-.28,2.48-.68,2.54-1.27.22-2.92.22-3.91-.45-1.72-1.17-3.06-2.91-4.56-4.41"/>
    <path class="cls-2" d="m297,799.03c1.65-3.77,3.31-7.54,5.09-11.6-4.42-.33-8.26-.61-12.09-.9"/>
    <path class="cls-2" d="m836,503.03c-3.67,2-7.33,4-11,6"/>
    <path class="cls-2" d="m74,422.03c-3.33,3-6.67,6-10,9"/>
    <path class="cls-2" d="m808,168.03c1.33,3.67,2.67,7.33,4,11"/>
    <path class="cls-2" d="m568.5,43.53c.67,3.67,1.33,7.33,2,11"/>
    <path class="cls-2" d="m782,162.03c1.67,3.67,3.33,7.33,5,11"/>
    <path class="cls-2" d="m165.5,367.53c-2.66,4.33-6.97,3.45-11,3.52-1,.02-2,.31-3,.48"/>
    <path class="cls-2" d="m271.5,445.53c-.17,1.67-.6,3.36-.46,5,.85,9.76-2.19,18.18-8.54,25.5"/>
    <path class="cls-2" d="m653,170.53c3.17,2.83,6.33,5.67,9.5,8.5"/>
    <path class="cls-2" d="m109,435.03c-3.33,1.67-6.67,3.33-10,5"/>
    <path class="cls-2" d="m832,615.03c-3.33-.17-6.67-.33-10-.5"/>
    <path class="cls-2" d="m26,83.03l9,3"/>
    <path class="cls-2" d="m663,180.03c.33,3.33.67,6.67,1,10"/>
    <path class="cls-2" d="m855,207.03c3.33,2.67,6.67,5.33,10,8"/>
    <path class="cls-2" d="m11,1000.03H1"/>
    <path class="cls-2" d="m675,169.53c-4.69-.41-7.45,2.23-9.5,6-.64,1.18-1.33,2.34-2,3.5"/>
    <path class="cls-2" d="m293.5,140.03v10"/>
    <path class="cls-2" d="m1000,423.03c-3.33-.67-6.67-1.33-10-2"/>
    <path class="cls-2" d="m48,913.03c-3.33,2.67-6.67,5.33-10,8"/>
    <path class="cls-2" d="m901,863.03h-10"/>
    <path class="cls-2" d="m160,614.03h-10"/>
    <path class="cls-2" d="m22,619.03c-3.33,2.67-6.67,5.33-10,8"/>
    <path class="cls-2" d="m50.5,349.53c-2.33,2.83-4.67,5.67-7,8.5"/>
    <path class="cls-2" d="m882,245.03c-2.33,3-4.67,6-7,9"/>
    <path class="cls-2" d="m931.5,684.53c4.5,1.33,9,2.67,13.5,4"/>
    <path class="cls-2" d="m598,883.53c-5.93-.17-8.18,4.21-10.5,8.5"/>
    <path class="cls-2" d="m88,412.03c-2.67,2-5.33,4-8,6"/>
    <path class="cls-2" d="m226,43.53c-3-.17-6-.33-9-.5"/>
    <path class="cls-2" d="m921,863.03h-8"/>
    <path class="cls-2" d="m180,614.03c-2.67-.17-5.33-.33-8-.5"/>
    <path class="cls-2" d="m852,614.53h-8"/>
    <path class="cls-2" d="m1,423.03c2.33,1.67,4.67,3.33,7,5"/>
    <path class="cls-2" d="m247,43.03h-8"/>
    <path class="cls-2" d="m1000,632.03c-2.33,2.33-4.67,4.67-7,7"/>
    <path class="cls-2" d="m893,12.03c-3.17,1-6.33,2-9.5,3"/>
    <path class="cls-2" d="m701,954.03c2.67,1.67,5.33,3.33,8,5"/>
    <path class="cls-2" d="m958.5,687.53c-2.71-.87-5.19-1.18-6,2.5"/>
    <path class="cls-2" d="m942.5,453.03c-2.07,1.92-4.14,3.84-5.83,5.4.32,2.58.57,4.59.83,6.6"/>
    <path class="cls-2" d="m536,318.53c-1.73-2.09-3.57-3.8-6.5-2"/>
    <path class="cls-2" d="m792,182.03c1.67,2.33,3.33,4.67,5,7"/>
    <path class="cls-2" d="m1000,71.03c-2.33-.33-4.67-.67-7-1"/>
    <path class="cls-2" d="m901.5,993.53l-6.5,6.5"/>
    <path class="cls-2" d="m837,496.03c-2,1.33-4,2.67-6,4"/>
    <path class="cls-2" d="m327,598.53c-3.56-2.12-4.13,1.74-6,3"/>
    <path class="cls-2" d="m553,974.03l3,6"/>
    <path class="cls-2" d="m480.5,866.53c-1.33,2.67-2.67,5.33-4,8"/>
    <path class="cls-2" d="m140,993.53c.99-.2,1.99-.4,4.02-.8-.77,2.78-1.4,5.04-2.02,7.3"/>
    <path class="cls-2" d="m610,461.03c3.33.33,6.67.67,10,1"/>
    <path class="cls-2" d="m36.5,5.03c-.23-1.71,1-4.34-2.5-4"/>
    <path class="cls-2" d="m6,632.03c-1.67,1.67-3.33,3.33-5,5"/>
    <path class="cls-2" d="m65.5,4.03c-4.67,1-9.32,2.04-14.01,2.96-.77.15-1.66-.29-2.49-.46"/>
    <path class="cls-2" d="m6,480.03H1"/>
    <path class="cls-2" d="m55.5,267.53c3.67.5,7.41.7,10.97,1.62,1.84.48,3.36,2.21,5.03,3.38"/>
    <path class="cls-2" d="m54.5,1.53c-.33,1.5-.67,3-1,4.5"/>
    <path class="cls-2" d="m578,47.03c.17,1.5.33,3,.5,4.5"/>
    <path class="cls-2" d="m61,1.03c-.5,1.33-1,2.67-1.5,4"/>
    <path class="cls-2" d="m269.5,882.03c-.17,0-.39.07-.49-.01-3.51-2.99-7.01-5.99-10.51-8.99"/>
    <path class="cls-2" d="m384.5,928.03c-1.33,1.83-2.67,3.67-4,5.5.17,1,.33,2,.5,3"/>
    <path class="cls-2" d="m628.5,261.03l1.5,4.5"/>
    <path class="cls-2" d="m540.5,316.53c-2.17,1.67-4.33,3.33-6.5,5"/>
    <path class="cls-2" d="m95,530.53c1.33.33,2.67.67,4,1"/>
    <path class="cls-2" d="m181.5,828.03c-.33,1.17-.67,2.33-1,3.5"/>
    <path class="cls-2" d="m182,986.03c.16.83.31,1.67.51,2.74-.44.22-.98.49-1.51.76"/>
    <path class="cls-2" d="m732,122.03c-.67.67-1.33,1.33-2,2"/>
    <path class="cls-2" d="m883,1.03c-.33.33-.67.67-1,1"/>
  </g>
</svg>