<?xml version="1.0" encoding="UTF-8"?>
<svg id="Layer_1" data-name="Layer 1" xmlns="http://www.w3.org/2000/svg" viewBox="0 0 326 124">
  <defs>
    <style>
      .cls-1 {
        fill: #fff;
      }

      .cls-2 {
        fill: #333;
      }
    </style>
  </defs>
  <g>
    <path class="cls-2" d="m62,121.5c-32.81,0-59.5-26.69-59.5-59.5S29.19,2.5,62,2.5h202c32.81,0,59.5,26.69,59.5,59.5s-26.69,59.5-59.5,59.5H62Z"/>
    <path d="m264,5c31.43,0,57,25.57,57,57s-25.57,57-57,57H62c-31.43,0-57-25.57-57-57S30.57,5,62,5h202m0-5H62C27.9,0,0,27.9,0,62h0c0,34.1,27.9,62,62,62h202c34.1,0,62-27.9,62-62h0c0-34.1-27.9-62-62-62h0Z"/>
  </g>
  <g>
    <path class="cls-2" d="m64.75,108.5c-26.19,0-47.5-21.31-47.5-47.5S38.56,13.5,64.75,13.5h196.5c26.19,0,47.5,21.31,47.5,47.5s-21.31,47.5-47.5,47.5H64.75Z"/>
    <path class="cls-1" d="m261.25,16c24.81,0,45,20.19,45,45s-20.19,45-45,45H64.75c-24.81,0-45-20.19-45-45s20.19-45,45-45h196.5m0-5H64.75c-27.5,0-50,22.5-50,50h0c0,27.5,22.5,50,50,50h196.5c27.5,0,50-22.5,50-50h0c0-27.5-22.5-50-50-50h0Z"/>
  </g>
</svg>