<?xml version="1.0" encoding="UTF-8"?>
<svg id="Layer_1" data-name="Layer 1" xmlns="http://www.w3.org/2000/svg" viewBox="0 0 203 203">
  <defs>
    <style>
      .cls-1 {
        fill: #fff;
      }
    </style>
  </defs>
  <path class="cls-1" d="m101.5,0C45.44,0,0,45.44,0,101.5s45.44,101.5,101.5,101.5,101.5-45.44,101.5-101.5S157.56,0,101.5,0Zm-59.32,41.76c11.38-3.14,22.74-6.38,34.18-9.3,2.62-.66,5.54-.36,8.3-.19,9.93.59,19.4,3.02,28.25,7.58,3.51,1.8,6.85,3.92,10.26,5.9-.07.19-.14.39-.21.58-1.03-.26-2.13-.34-3.06-.79-8.17-3.96-16.75-5.99-25.85-5.66-5.33.19-10.46,1.51-15.64,2.68-6.48,1.46-12.97,2.98-19.53,3.9-8.11,1.13-16.24.7-24.17-1.63-.33-.09-.65-.22-.98-.33-.01-.09-.03-.18-.04-.27,2.83-.83,5.65-1.69,8.49-2.47Zm-13.53,5.11c1.65.55,3.29,1.17,4.97,1.66,7.36,2.18,14.89,2.47,22.49,1.84,9.51-.78,18.8-2.9,28.19-4.48,17.73-2.98,34.8-.75,51.15,6.91,8.77,4.11,16.52,9.49,22.4,17.28,1.46,1.93,2.54,4.14,3.75,6.24.26.45.33,1.01.37,1.59-6.88-5.66-14.23-10.36-22.84-12.83-8.66-2.48-17.28-2.1-26.31.37,17.32,2.25,31.59,9.63,43.06,22.32-.07.18-.14.36-.21.54-1.42-.58-2.99-.92-4.21-1.76-10.67-7.3-22.44-10.13-35.27-9.14-7.73.6-15.08,2.93-22.6,4.53-7.78,1.64-15.55,3.43-23.41,4.52-10.62,1.47-21.18.8-31.38-2.96-.64-.23-1.25-.54-1.87-1.13,18.32-5.3,36.65-10.59,54.7-15.8-5.75-.44-11.82-.83-17.87-1.37-9.33-.84-18.61-1.89-27.22-6.03-6.41-3.07-12.19-7.06-17.54-11.7-.16-.14-.39-.2-.58-.3.07-.1.15-.2.23-.3Zm-9.79,17.86c4.84,4.52,10.43,5.39,16.6,3.46.96-.29,1.91-.6,2.83-.99,3.09-1.34,6.35-1.71,9.67-1.78,4.13-.08,8.26-.31,12.39-.26,4.97.06,8.95,2.4,12.62,6.16-1.25-.25-2.14-.47-3.04-.61-3.88-.61-7.63.18-11.32,1.21-4.69,1.31-9.28,2.98-14.01,4.08-6.77,1.56-13.4.98-19.62-2.42-3.13-1.71-5.41-4.2-6.63-7.58-.2-.54-.27-1.13-.47-2.02.53.4.77.56.98.75Zm11.63,46.75c-3.61.06-7.22.33-10.82.51-.3.01-.6,0-1.34,0,.83-1.13,1.37-2.1,2.13-2.87,3.35-3.35,7.56-5.23,12.01-6.58,6.19-1.88,12.47-2.08,18.85-1.03,2.09.34,4.24.25,6.4.14-9.39-4.48-19.52-5.55-30.12-6.53,1.03-1,1.73-1.87,2.61-2.51,3.61-2.63,7.8-3.78,12.13-4.46,6.66-1.05,13.15-.3,19.53,1.89,5.25,1.8,10.63,1.49,16.01.57,6.33-1.08,12.36-3.16,18.23-5.85.91.77.54,1.23-.16,1.67-4.6,2.91-9.19,5.83-13.77,8.76-.91.58-1.82,1.19-2.63,1.9-5.46,4.88-11.08,9.56-17.48,13.18-2.81,1.6-5.71,3.03-8.98,3.37-1.27.14-2.65.19-3.86-.16-6.14-1.77-12.42-2.12-18.74-2Zm140.43,39.28c-6.53,8.52-13.88,16.31-22.64,22.65-1.54,1.12-2.96,2.43-4.55,3.5-2.08,1.39-4.42,2.32-6.9,1.43-1.55-.55-2.96-1.58-4.3-2.58-1.61-1.19-3.08-2.57-4.71-3.96-.92.74-2.31,1.91-3.76,3-2.81,2.1-5.81,3.82-9.25,4.69-6.06,1.53-11.26-.26-15.02-5.22-.68-.9-1.26-1.87-2.07-3.07-1.48,1.55-2.79,3.18-4.35,4.52-2.17,1.87-4.38,3.77-6.83,5.21-3.69,2.17-7.05,1.55-10.08-1.49-1.5-1.51-2.86-3.16-4.37-4.83-.74.56-1.51,1.17-2.3,1.76-3.23,2.4-6.63,4.49-10.61,5.44-6.69,1.61-12.13-.63-15.77-6.49-2.29-3.69-3.21-7.77-3.32-12.06-.33-12.68,3.82-24.01,10.52-34.54,2.69-4.23,5.81-8.16,9.51-11.58,3.38-3.12,7.57-3.68,11.91-3.71.84,0,.83.52.41,1.04-.43.54-.94,1.03-1.42,1.53-9.95,10.27-15.66,22.57-17.44,36.7-.58,4.59-.74,9.22.78,13.71,1.27,3.77,3.51,6.63,7.8,7.12,2.84.32,5.24-.91,7.73-2.44-1.45-1.95-2.54-4.16-4.95-5-.89-.31-1.96-.09-2.94-.14-.4-.02-1.07-.01-1.14-.2-.15-.38-.15-1.02.09-1.33.85-1.08,1.73-2.18,2.77-3.08,3.33-2.88,6.84-2.89,10.26-.1,1.01.82,1.94,1.74,3.01,2.7.36-.49.73-.96,1.07-1.45,5.37-7.54,9.69-15.59,11.8-24.68,1.14-4.9,1.76-9.86.93-14.88-.2-1.21-.73-2.42-1.36-3.49-.99-1.67-2.58-2.18-4.4-1.48-.91.35-1.87.85-2.52,1.55-3.96,4.35-6.32,9.43-6.51,15.39-.07,2.23.8,3.21,3,3.71,1.23.28,1.59.84,1.35,2.08-.49,2.51-3.14,5.04-5.74,5.46-2.3.38-4.65-.96-6.01-3.53-1.59-3-1.51-6.22-.93-9.43,1.2-6.49,4.6-11.77,9.35-16.23,1.86-1.74,4.01-3.05,6.59-3.49,4.37-.75,7.82,1.06,9.64,5.13,1.59,3.56,1.7,7.33,1.44,11.14-.9,13.65-6.8,25.3-14.57,36.18-.3.42-.6.85-1.05,1.49,1.48,1.6,2.86,3.28,4.45,4.74,1.91,1.75,4.24,2.03,6.38.59,2.14-1.44,4.04-3.26,6.01-4.96.22-.19.32-.71.25-1.03-1.97-8.79-.91-17.38,1.69-25.86,3.04-9.88,8.09-18.62,14.95-26.35,3.4-3.84,7.83-4.95,12.65-5.22.29-.02.59.21.89.32-.15.34-.25.72-.47,1.01-2.65,3.5-5.6,6.81-7.92,10.51-6.63,10.55-9.72,22.15-9.51,34.61.06,3.05.54,6.06,1.78,8.9,2.56,5.87,7.92,7.71,13.53,4.62.69-.38,1.33-.82,2.36-1.45-1.57-1.53-2.95-3.07-4.53-4.35-1.09-.89-2.51-.83-3.88-.42-.37.11-1.05.11-1.17-.09-.21-.33-.21-.92-.06-1.31,2.11-5.46,8.66-7.34,13.28-3.82,1,.77,1.93,1.61,2.95,2.46.14-.12.29-.21.37-.34,5.54-8.28,9.92-17.08,11.75-26.96.89-4.85,1.37-9.76.33-14.66-.25-1.16-.73-2.33-1.34-3.36-1.23-2.07-3.18-2.65-5.26-1.43-1.23.72-2.43,1.76-3.24,2.93-2.79,4.03-4.52,8.51-4.84,13.45-.18,2.79.83,4.15,3.52,4.7,1.06.21,1.33.85,1.25,1.79-.21,2.37-2.73,5.24-5.16,5.88-2.49.65-4.83-.38-6.46-2.83-1.94-2.91-2.02-6.2-1.61-9.45.94-7.45,4.56-13.54,10.13-18.47,2.46-2.18,5.39-3.37,8.77-2.91,3.01.4,5.22,2.13,6.36,4.83.93,2.21,1.65,4.62,1.86,6.99.9,10.38-1.64,20.14-6.14,29.39-2.1,4.33-4.69,8.43-7.13,12.59-.48.83-.5,1.32.01,2.17,1.34,2.18,3.26,2.12,5.26,1.57,3.54-.98,6.88-2.44,9.66-4.94.35-.31.67-.81.74-1.26.44-2.92.83-5.85,1.2-8.78.12-.98.37-1.81,1.51-1.97,1.13-.15,1.93.54,1.98,1.72.04.89.01,1.78.01,2.67.96-1.96,1.33-4.03,1.28-6.16-.03-1.13-.11-2.26-.18-3.39-.07-1.06.47-1.67,1.46-1.82,1.02-.15,1.83.17,1.96,1.36.11,1.04.2,2.08.32,3.43.32-1.18.59-2.08.79-3,.25-1.15.97-1.66,2.07-1.49,1.15.18,1.55,1,1.43,2.12-.11,1.06-.2,2.13-.18,3.23,1.87-2.71,3.32-5.61,4.15-8.75,2.9-10.96.9-20.83-7.02-29.12-3.95-4.14-9.11-6.2-14.66-7.17-10.9-1.9-21.55-.56-32.1,2.46-5.17,1.49-10.4,2.84-15.68,3.85-3.39.65-6.92.67-10.4.78-5.09.16-10.19.15-15.28.2-.3.01-.6-.03-1.09-.06.28-.31.42-.56.64-.71,11.66-8.1,23.73-15.57,36.41-21.98,6.96-3.52,14.41-5.35,22.29-5.02,8.83.37,16.58,3.65,23.57,8.88,8.21,6.14,13.5,14.41,17.19,23.83.84,2.16,1.57,4.36,2.43,6.53.28-6.29-.14-12.52-1.29-18.69-3.03-16.17-10.86-29.79-22.22-41.49-8.82-9.08-18.61-16.93-29.85-22.86-10.27-5.43-21.2-8.66-32.79-9.74-12.23-1.15-24.22.27-36.07,3.26-.2.05-.41.09-.7-.07.39-.21.77-.42,1.17-.62,9.85-4.88,20.14-8.4,31.08-9.8,28.54-3.66,53.84,3.24,74.66,23.71,12.19,11.98,19.53,26.73,23.28,43.33,1.84,8.16,2.61,16.42,2.02,24.76-.98,13.81-5.59,26.35-14,37.34Z"/>
</svg>