<?xml version="1.0" encoding="UTF-8"?>
<svg id="Layer_1" data-name="Layer 1" xmlns="http://www.w3.org/2000/svg" viewBox="0 0 785.06 416.39">
  <defs>
    <style>
      .cls-1 {
        fill: #fff;
      }
    </style>
  </defs>
  <path class="cls-1" d="m785.06,208.31c-1.23.89-2.51,1.72-3.66,2.69-1.89,1.59-3.73,3.24-5.52,4.95-.6.57-.99,1.36-1.47,2.06l.37.31c.66-.6,1.31-1.21,1.98-1.8.59-.52,1.36-.84,1.92-.21.4.45.67,1.31.54,1.88-.25,1.07-.84,2.06-1.3,3.08-1.12,2.48-2.3,4.93-3.32,7.44-.34.83-.52,1.88-.35,2.75,2.96,15.41,3.67,30.95,2.8,46.58-.4,7.18-.86,14.37-1.51,21.53-1.46,15.93-5.79,31.08-12.76,45.46-6.57,13.54-14.69,26.06-25.39,36.73-10.1,10.08-21,19.23-33.06,26.91-7.43,4.73-15.54,7.46-24.42,7.51-7.8.04-14.3-2.92-19.49-8.75-5.04-5.67-7.81-12.39-9.2-19.75-1.7-9-1.17-17.99.2-26.97,1.73-11.33,5.08-22.27,8.13-33.28.83-3,1.64-6.01,2.5-9.01,1.18-4.1-2.28-8.4-6.56-7.96-1.31.13-2.65.65-3.83,1.27-9.77,5.11-19.51,10.28-29.26,15.46-1.68.89-3.3,1.87-5.01,2.85.24.73.34,1.28.58,1.77,5.33,11.11,5.15,22.39,1.09,33.8-1.7,4.77-3.88,9.31-6.77,13.46-8.28,11.91-18.44,21.85-31.06,29.14-9.56,5.53-19.81,8.47-30.92,7.93-7.59-.37-14.36-2.98-20.15-7.93-1.38-1.18-2.59-2.62-3.68-4.08-2.24-3-2.36-6.17-.4-9.4,4.09-6.74,8.98-12.82,14.89-18.09,1.66-1.48,3.25-3.09,4.62-4.84,9.44-12.12,19.16-24.01,29.74-35.16.27-.29.52-.6.94-1.1-2.31-5.07-4.66-10.2-7.2-15.76-.7.95-1.23,1.58-1.66,2.27-10.09,15.9-21.37,30.91-33.68,45.16-9.91,11.47-20.41,22.3-32.66,31.32-5.61,4.13-11.32,8.11-17.61,11.14-13.91,6.69-28.51,8.67-43.42,4.77-16.6-4.34-26.66-15.64-31.15-32.06-.25-.91-.48-1.84-.81-3.14-1.01.84-1.87,1.49-2.65,2.22-7.62,7.08-15.39,13.98-23.67,20.29-5.41,4.13-10.97,8.03-17.21,10.84-5.16,2.33-10.49,3.86-16.23,3.6-7.27-.33-13.06-3.36-17.22-9.37-3.64-5.25-5.45-11.17-6.18-17.45-.25-2.14-.37-4.3-.57-6.45-.06-.6-.22-1.18-.42-2.19-1,1-1.74,1.7-2.44,2.44-6.58,7-13.42,13.73-20.98,19.68-5.87,4.62-12.09,8.66-19.18,11.18-4.95,1.76-10.04,2.56-15.31,2.32-7.04-.32-12.49-3.54-16.73-9.01-4.08-5.27-6.11-11.36-6.91-17.9-.33-2.69-.56-5.39-.87-8.46-.74.6-1.21.94-1.64,1.33-7.14,6.53-14.19,13.16-21.43,19.57-4.31,3.81-9.03,7.15-14.14,9.87-4.27,2.27-8.73,4.01-13.59,4.39-7.59.59-14.16-1.82-19.79-6.9-5.3-4.79-9.99-10.14-14.53-15.62-.66-.8-1.34-1.58-2.19-2.58-.81.59-1.57,1.12-2.3,1.69-8.24,6.38-16.84,12.19-26.34,16.55-7.23,3.32-14.71,5.82-22.67,6.64-15.47,1.59-28.75-2.81-39.39-14.41-8.17-8.9-12.99-19.47-15.46-31.2-2.02-9.63-2.21-19.36-1.67-29.13.05-.96.11-1.92.14-2.87,0-.31-.07-.62-.13-1.15-2.27-.34-4.53-.67-6.8-1.01-15.41-2.31-26.24-10.62-32.5-24.89-3.07-7-4.63-14.39-6.29-21.82-1.81-8.1-.1-15.53,2.46-22.99,2.01-5.85,4.92-11.3,8.16-16.53,3.49-5.64,7.1-11.22,10.98-16.59,5.01-6.93,10.33-13.64,15.55-20.42.91-1.19,1.42-2.42,1.37-3.96-.84-24.21,4.16-47.34,13.02-69.74,11.13-28.12,27.56-52.78,48.55-74.46,2.22-2.3,4.57-4.48,6.97-6.6,6.6-5.85,14.4-9.22,23.04-10.45,5.61-.8,11.3-1.03,16.95-1.49.55-.04,1.11.05,1.64.08.78,1.83.74,2.12-.7,3.57-2.37,2.38-4.78,4.72-7.14,7.11-27.43,27.81-45.31,60.84-53.98,98.89-1.99,8.75-3.26,17.6-4.01,26.53-.09,1.11-.09,2.24-.11,3.36,0,.3.1.61.19,1.18,2.49-.42,4.9-.91,7.32-1.21,7.69-.96,15.38-1.98,23.09-2.73,10.19-.99,20.35-2.12,30.41-4.02,3.04-.57,5.45-2.25,7.6-4.26,3.01-2.83,5.3-6.19,6.44-10.23.06-.23.16-.45.23-.68.24-.82.8-1.18,1.63-1.05.95.15,1.43.81,1.27,1.71-.2,1.09-.57,2.16-.92,3.22-.26.81-.6,1.6-.78,2.46,2.24-1.75,3.89-3.97,5.48-6.23,1.39-1.97,1.47-1.99,3.94-.84.49-2.14,1.02-4.21,1.43-6.3.33-1.72.8-2.5,1.74-2.46.96.04,1.47.82,1.57,2.58.1,1.6.12,3.2.2,4.79.04.69.16,1.38.57,2.09.25-.56.52-1.12.74-1.69.37-.95.82-1.81,2.05-1.57.92.18,1.23,1.09.93,2.6-.18.92-.41,1.83-.73,3.27,2.36-1.65,4.36-2.93,6.24-4.38,2.52-1.95,4.98-3.99,7.4-6.06,4.41-3.78,8.11-8.18,11.01-13.21.95-1.65,1.75-3.42,2.35-5.22,5.11-15.28,7.76-31,7.96-47.1.07-5.84-.32-11.67-2.17-17.3-.91-2.75-2.11-5.35-3.84-7.69-3.5-4.71-8.25-6.39-13.95-4.98-4.15,1.03-7.75,3.11-10.64,6.18-2.67,2.84-5.31,5.81-7.43,9.06-5.78,8.89-10.42,18.35-12.87,28.75-1.06,4.53-1.78,9.1-1.26,13.79.63,5.79,3.64,9.13,9.36,10.31.7.15,1.43.2,2.12.38,2.4.62,3.42,1.81,3.25,4.3-.11,1.65-.37,3.41-1.08,4.87-3.71,7.63-9.54,12.7-18.08,14.28-4.76.89-9.08-.24-12.92-3.06-5.75-4.22-9.09-10.01-10.42-16.96-2.05-10.64-.66-21.01,2.63-31.21,3.99-12.38,10.8-23.12,19.2-32.93,5.12-5.99,10.77-11.38,17.45-15.62,6.57-4.17,13.68-6.52,21.52-6.4,9.54.14,17.13,4.03,22.61,11.89,4.16,5.97,6.35,12.68,7.28,19.84,1.29,9.9.88,19.79-.32,30.03.41-.49.64-.71.8-.98.2-.34.32-.73.5-1.09,3.35-6.9,6.55-13.88,10.11-20.67,3.85-7.32,8.76-13.94,14.61-19.83,2.9-2.92,5.87-5.66,10.21-6.3.61-.09,1.18-.95,1.61-1.57,3.36-4.87,6.52-9.88,10.03-14.64,7.75-10.53,17.43-18.89,29.05-24.94,3.54-1.85,7.02-3.84,10.66-5.49,2.45-1.11,5.09-1.86,7.7-2.53,1.2-.31,2.66-.4,3.78.02,1.7.64,2.99.15,4.47-.5,10.31-4.58,21.13-7.34,32.34-8.42,5.8-.56,11.64-.68,17.47-.92,2.15-.09,2.79.3,2.92,1.33.18,1.54-1.1,1.78-2.08,2.22-5.91,2.7-11.46,6.02-16.63,9.96-.62.47-1.2.99-1.63,1.76.55-.23,1.12-.43,1.66-.7,17.75-8.89,36.55-12.31,56.28-10.65,10.83.91,21.32,3.43,31.27,7.78,5.64,2.47,10.89,5.73,15.18,10.3,2.02,2.15,4.24,4.14,6.09,6.43,6.37,7.94,10.05,17.03,11,27.17.42,4.56.1,9.11-.97,13.58-.45,1.87-1.13,2.51-2.22,2.18-1.02-.31-1.18-1.01-.82-2.85,3.2-16.28-1.67-30.06-12.79-42.02-8.82-9.49-20.06-14.3-32.34-17.11-25.07-5.74-49.09-2.89-71.81,9.34-4.2,2.26-8.05,5.2-12.05,7.83-.47.31-.87.72-1.34,1.01-.69.42-1.52.43-1.92-.26-.3-.52-.36-1.36-.16-1.93.22-.64.84-1.15,1.3-1.7,6.48-7.53,14.01-13.77,22.58-18.79.67-.39,1.33-.81,2.37-1.44-.66-.15-.92-.26-1.18-.25-16.94.57-33.11,4.17-48.07,12.36-9.46,5.18-17.5,12.02-23.82,20.83-1.12,1.57-1.93,1.93-2.86,1.36-.97-.59-.9-1.34.33-3.07,5.78-8.13,13-14.71,21.51-19.91.8-.49,1.58-1.02,2.37-1.52-.06-.15-.12-.3-.17-.45-1.18.35-2.4.59-3.52,1.07-17.71,7.63-33.4,17.92-44.21,34.4-4.34,6.62-8.45,13.38-12.66,20.08-.26.41-.47.83-.72,1.24-.9,1.46-1.7,1.86-2.61,1.31-.87-.52-.88-1.38,0-2.95.67-1.18,1.38-2.34,2.05-3.52.22-.39.41-.8.31-1.55-1,.7-2.06,1.32-2.98,2.11-4.4,3.77-8.13,8.14-11.45,12.87-5.22,7.43-9.22,15.52-12.97,23.75-2.59,5.67-5.15,11.36-7.71,17.04-.34.77-.57,1.59-.85,2.39.16.09.32.19.48.28.57-.71,1.16-1.41,1.71-2.14,6.4-8.5,12.74-17.04,19.2-25.49,7.71-10.08,16.4-19.22,26.33-27.14,13.04-10.4,27.88-16.72,44.26-19.56,14.91-2.59,29.91-3.07,44.92-1.31,20.42,2.39,40.29,7.05,59.12,15.53,2.76,1.24,5.42,2.75,8.06,4.23.81.45,1.55,1.16,2.1,1.91.79,1.09.14,2.3-1.22,2.34-.6.02-1.25-.23-1.82-.48-9.27-4.12-18.95-6.77-28.99-8.08-9.47-1.24-18.98-1.35-28.48-.47-24.96,2.32-48.48,9.77-71.09,20.34-12.99,6.07-24.22,14.56-33.73,25.3-6.05,6.83-12.09,13.66-18.17,20.45-8.84,9.89-18.84,18.46-29.77,25.96-.65.44-1.27.92-2.42,1.75,1.2,0,1.87.11,2.49-.02,3.81-.81,7.68-1.46,11.4-2.57,8.47-2.53,15.91-6.99,22.64-12.68,5.07-4.29,10.07-8.65,15.28-12.77,8.36-6.61,17.32-12.31,26.67-17.43,13.47-7.37,27.92-9.8,43.08-8.93,1.2.07,2.39.15,3.59.24,1.08.08,1.59.73,1.53,1.76-.06,1.03-.79,1.24-1.7,1.23-4.4-.07-8.79-.23-13.19-.15-10.9.19-21.16,2.95-30.81,8-12.88,6.75-24.63,15.15-35.69,24.56-3.53,3.01-7.03,6.06-10.7,8.89-7.18,5.55-15.27,9.27-24.08,11.45-1.63.4-3.18.86-4.56,1.98-.89.72-2.17.97-3.26,1.45-2.2.95-4.8,1.47-6.47,3-1.65,1.51-2.34,4.07-3.49,6.15-3.97,7.21-7.96,14.41-11.95,21.61-.46.82-.93,1.64-1.65,2.9,1.4-.18,2.39-.3,3.37-.44,3.82-.53,7.65-.65,11.47,0,6.86,1.17,12.34,4.64,16.58,10.13,4.56,5.91,7.17,12.65,7.97,20.02.53,4.84.66,9.73.97,14.6.05.86.1,1.71.16,2.6,2.42-.78,3.58-2.2,3.66-4.5.06-2,0-4,.03-6,.28-14,2.83-27.64,6.45-41.12,3.81-14.21,8.42-28.17,13.33-42.04.79-2.23,2-3.32,4.34-3.77,11.93-2.27,23.83-4.69,35.74-7.04.61-.12,1.23-.15,2.22-.26-.32,1.2-.54,2.17-.84,3.12-4.79,15.08-9.58,30.16-14.38,45.24-3.9,12.28-7.18,24.71-9.19,37.45-.78,4.92-1.26,9.84-.25,14.79.13.62.27,1.25.47,1.85,1.9,5.73,6.88,8.39,12.7,6.75,2.95-.83,5.67-2.18,8.07-4.11,8.24-6.64,15.25-14.38,20.43-23.63,1.63-2.9,2.94-6.05,3.93-9.23,6.33-20.29,12.53-40.62,18.77-60.94,1.01-3.3,1.01-3.29,4.4-3.97,11.83-2.38,23.65-4.76,35.48-7.14.84-.17,1.7-.25,2.92-.43-.24,1.15-.37,2.05-.63,2.92-6.62,22.12-13.33,44.22-19.84,66.38-1.75,5.97-3.05,12.08-4.3,18.18-.8,3.88-.36,7.82.7,11.64,1.56,5.65,6.02,8.07,11.64,6.43,2.79-.81,5.37-2.03,7.77-3.67,6.83-4.66,13.03-10.06,19.02-15.73,1.86-1.76,3.72-3.52,5.61-5.24,1.05-.96,1.68-2.11,1.91-3.5,3.13-19,8.75-37.32,15.13-55.43,1.3-3.69,2.75-7.34,3.98-11.05.66-2,1.93-2.95,3.92-3.35,11.51-2.33,23.01-4.73,34.51-7.08,1.07-.22,2.18-.23,3.64-.38-.36,1.34-.59,2.4-.91,3.42-4.96,15.61-9.92,31.22-14.9,46.83-3.01,9.44-5.87,18.93-7.65,28.7-.83,4.57-1.72,9.15-1.17,13.81.23,1.94.77,3.95,1.62,5.69,1.52,3.1,4.38,4.4,7.8,3.87,3.85-.61,7.41-1.96,10.44-4.5,5.76-4.84,11.15-10.08,16.26-15.61,1.09-1.18,1.57-2.59,1.65-4.14,1.28-23.07,6.69-45.33,13.36-67.33,4.18-13.77,8.96-27.34,14.23-40.73.26-.65.48-1.32.76-2.1-.86-.32-1.59-.6-2.33-.87-5.02-1.86-9.47-4.62-13.29-8.38-1.81-1.79-1.71-2.36.22-3.99,1.95-1.64,3.88-3.33,5.65-5.16,1.34-1.38,2.22-3.1,2.41-5.34-.62.14-1.11.26-1.61.37-3.26.75-6.5,1.67-9.8,2.17-1.76.27-3.68.04-5.43-.37-.96-.22-1.85-1.18-2.5-2.03-.28-.36-.07-1.51.32-1.85.37-.32,1.59-.33,1.86,0,1.3,1.57,2.98,1.37,4.64,1.27,4.03-.22,7.89-1.21,11.61-2.75.52-.21,1.01-.5,1.54-.67,1.53-.49,2.28,0,2.45,1.59.26,2.46-.27,4.77-1.43,6.94-1.31,2.44-3.2,4.38-5.25,6.18-.64.56-1.29,1.13-2.09,1.83,4.21,3.84,8.77,6.6,14.23,8.03,3.17-7.22,6.29-14.3,9.49-21.6-.53-.51-1.07-1.08-1.66-1.58-8.23-7.05-14.05-15.89-18.87-25.46-.14-.29-.26-.58-.37-.88-.36-.95-.23-1.74.79-2.18.93-.4,1.52.09,1.96.85.24.42.47.84.7,1.26,4.75,8.71,11.87,15.14,19.88,20.72.19.13.43.17.91.34.9-1.75,1.99-3.44,2.68-5.28,1.46-3.93,4.26-5.97,8.17-7.34,10.78-3.78,21.44-7.9,32.15-11.89,5.7-2.13,8.58-1,11.35,4.39,2.09,4.07,2.91,8.46,3.13,12.96.36,7.28.27,14.55-.74,21.79-.14,1.02-.14,2.05-.22,3.31.86,0,1.54.04,2.22,0,11.56-.87,23.11-1.78,34.68-2.6,1.35-.1,1.94-.69,2.47-1.8,3.38-7.07,6.85-14.09,10.19-21.18.95-2.02,2.3-3.25,4.42-4.02,11.42-4.14,22.79-8.4,34.18-12.61.9-.33,1.8-.67,2.72-.93,3.4-.95,5.69-.14,7.72,2.74,1.87,2.66,2.94,5.66,3.67,8.8.14.61.31,1.21.61,2.39.93-2.15,1.23-3.88,1.34-5.63.09-1.35-.04-2.73.09-4.07.05-.53.46-1.28.89-1.45.47-.18,1.25.07,1.71.39.49.35.85.96,1.12,1.53,1.16,2.43,2.26,4.89,3.45,7.5.27-.25.62-.52.89-.86,3.55-4.5,8.18-5.73,13.5-4.11,2.81.85,5.61,1.96,8.16,3.4,9.85,5.54,18.42,12.7,25.67,21.37,4.7,5.62,7.63,12.15,9.28,19.27.18.78.36,1.56.46,2,1.34.98,2.58,1.68,3.57,2.63,8.5,8.21,14.28,18.19,18.49,29.13,3.99,10.34,6.38,21.09,8.19,31.99,1.25,7.52,1.86,15.07,1.51,22.7-.19,4.25-.83,8.42-1.88,12.55-.42,1.64-.8,3.15-2.53,4.07-1.45.77-2.68,1.97-4.1,3.06.13.52.28,1.12.44,1.76.33-.08.6-.07.76-.19,1.91-1.45,3.8-2.92,5.7-4.39.25-.2.5-.4.76-.59,1.69-1.27,2.47-1.44,3.11-.58.93,1.25-.09,2.03-.76,2.92-1.1,1.47-2.21,2.93-3.23,4.46-.41.62-.59,1.39-.87,2.1.13.1.25.2.38.3,2.8-1.62,5.62-3.21,8.4-4.88.96-.58,1.85-.93,2.88-.26v1.92Zm-151.22-84.12c1.42-.73,2.42-.21,3.58.79,2.67,2.27,5.49,4.36,8.31,6.45,1,.74,2.15,1.25,3.37,1.95,5.34-10.23,9.68-20.62,13.1-31.6-6.65-2.51-13.33-3.71-20.16-4.49-.4.97-.76,1.68-.99,2.43-2.38,7.78-4.73,15.56-7.08,23.34-.11.37-.06.79-.08,1.19-.34.97-.75,1.92-1,2.9-2.21,8.67-4.49,17.32-6.54,26.03-1.23,5.2-2.09,10.49-3.09,15.75-.09.46.06.97.14,1.82,9.47-10.83,17.44-22.16,24.19-34.54-.83-.52-1.52-.9-2.14-1.37-3.46-2.57-6.9-5.17-10.35-7.75-.98-.73-1.46-1.67-1.25-2.91Zm-329.41,157.17c-.36,1.18-.61,1.98-.86,2.78-4.81,14.99-9.81,29.92-14.37,44.98-4.08,13.45-7.93,27-9.67,41.02-.56,4.53-.9,9.08.52,13.55,1.81,5.67,6.47,8.38,12.31,7.17,4.13-.85,7.5-3.13,10.62-5.8,5.67-4.86,10.58-10.43,14.98-16.47,3.58-4.9,6.15-10.25,7.91-16.05,6.08-20.03,12.25-40.04,18.32-60.07.66-2.19,1.82-3.23,4.1-3.66,9.89-1.88,19.74-3.95,29.6-5.93,2.87-.58,5.76-1.08,9.03-1.7-.37,1.39-.61,2.45-.92,3.48-6.23,20.74-12.53,41.45-18.67,62.22-2.04,6.89-4.29,13.74-5.24,20.91-.63,4.74-.39,9.42,1.23,13.96,1.02,2.87,3.01,4.59,6.01,5.27,2.63.6,5.08.06,7.48-.91,4.19-1.7,7.97-4.09,11.34-7.08,5.92-5.25,11.77-10.59,17.68-15.86,1.08-.97,1.53-2.08,1.72-3.53.59-4.43,1.06-8.91,2.14-13.23,4.95-19.8,15.62-36.04,30.98-49.36,10.13-8.79,21.54-14.5,35.08-15.57,7.46-.59,14.66.12,21.52,3.38,12.61,5.99,16.12,18.57,14.01,28.95-1.53,7.5-5.56,13.53-10.98,18.74-5.34,5.14-11.48,9.16-17.99,12.65-11.32,6.07-23.35,10.37-35.56,14.2-.89.28-1.78.6-2.76.93,1.41,7.02,3.68,13.43,7.9,19.04,3.8,5.04,8.75,8.34,14.86,9.92,6.58,1.7,13.11,1.57,19.65-.28,6.7-1.89,12.3-5.67,17.56-10.04,15.21-12.65,28.48-27.11,40.24-42.99,10.66-14.39,19.93-29.56,26.27-46.39.59-1.56,1.61-2.28,3.13-2.57,7.99-1.57,15.97-3.19,23.98-4.7,2.43-.46,4.9-.71,7.37-.92,1.85-.15,2.37.43,2.04,2.25-.23,1.33-.67,2.63-1.12,3.91-1.71,4.88-2.64,9.88-2.23,15.07.2,2.63.87,5.14,2.37,7.52.78-.49,1.46-.89,2.11-1.34,17.94-12.27,37.27-21.33,58.66-25.75,4.07-.84,6.86-3.32,8.34-7.19.71-1.86,1.23-3.8,1.81-5.71,2.97-9.87,5.93-19.74,8.9-29.61.31-1.01.64-1.99,0-2.99-1.27-2.01-2.88-3.58-5.27-4.23-.7.58-1.31,1.08-1.92,1.6-5.14,4.33-10.22,8.73-15.42,12.98-8.01,6.55-16.48,12.41-25.93,16.72-6.91,3.15-14.09,5.11-21.73,5.31-11.53.3-20.86-3.96-27.92-13.11-4.39-5.68-6.97-12.17-8.41-19.15-.27-1.3-.55-2.59-.9-4.22-.98.8-1.66,1.34-2.32,1.9-5.02,4.22-9.98,8.51-15.06,12.66-6.89,5.63-14.14,10.73-22.07,14.81-8.05,4.14-16.47,6.92-25.64,7.11-11.33.23-20.55-3.93-27.57-12.87-4.54-5.79-7.16-12.42-8.64-19.56-.27-1.3-.54-2.6-.87-4.15-.67.56-1.09.89-1.48,1.26-6.28,5.92-12.54,11.88-18.86,17.77-5.58,5.2-11.74,9.65-18.49,13.21-2.6,1.37-5.34,2.59-8.16,3.41-8.29,2.42-15.29.31-20.74-6.52-2.92-3.66-5.16-7.7-6.59-12.16-1.2-3.75-1.79-7.62-2.04-11.54-.08-1.32-.17-2.64-.26-3.94-.45,0-.66-.06-.75.01-.57.44-1.13.89-1.66,1.37-8.66,7.96-17.47,15.74-27.06,22.58-4.24,3.02-8.63,5.79-13.42,7.88-4.36,1.9-8.87,3.14-13.67,3.26-8.76.21-15.47-3.34-20-10.86-.94-1.57-1.74-3.24-2.44-4.94-2.12-5.16-2.99-10.59-3.26-16.14-.05-1.08-.11-2.15-.19-3.7-.87.72-1.37,1.07-1.78,1.49-2.01,2.06-3.99,4.15-6,6.21-7.39,7.57-15.19,14.67-24.16,20.37-6.22,3.95-12.93,6.56-20.24,7.68-10.32,1.57-19.82-2.92-24.83-12.07-1.22-2.23-2-4.69-2.98-7.05-.16-.39-.34-.77-.54-1.22-1.7,2.06-3.42,3.86-4.81,5.89-1.02,1.49-1.79,3.21-2.35,4.93-.59,1.81-.81,3.74-1.17,5.62-3.29,17.08-9.26,33.22-16.92,48.77-8.76,17.79-19.59,34.27-31.65,49.98-.67.87-1.3,1.76-1.88,2.56,3.54,6.2,10.35,13.72,15.73,17.6,6.13,4.42,12.62,5.02,19.5,2.06,4.44-1.92,8.39-4.62,12.13-7.66,6.04-4.92,11.32-10.59,16.41-16.46,1.26-1.46,1.95-3.05,2.26-4.91.51-3.07,1.06-6.14,1.7-9.19,4.07-19.44,10.21-38.28,16.89-56.95.65-1.82,1.75-2.66,3.58-3.02,9.41-1.84,18.8-3.76,28.2-5.63,3.27-.65,6.55-1.24,10.26-1.94Zm400.67,25.07c-.24.59-.46,1.02-.59,1.47-4.32,15.13-8.68,30.25-12.93,45.41-1.78,6.35-2.54,12.85-2.09,19.45.26,3.79,1.55,7.17,4.12,10,2.13,2.36,4.77,3.66,8,3.77,5.19.18,10.08-.87,14.33-3.86,3.59-2.52,7.09-5.23,10.28-8.22,7.42-6.95,12.91-15.43,18.03-24.13,13.69-23.23,21.54-48.34,24.11-75.16,1.32-13.82,1.01-27.59-.02-41.42-.5-6.71-3.52-10.98-9.08-14.01-.21-.11-.42-.23-.62-.36-.2-.12-.43-.23-.6-.39-.61-.54-.9-1.27-.35-1.89.35-.4,1.08-.7,1.6-.64.77.08,1.49.52,2.25.78.55.19,1.12.35,2.24.69-.83-1.11-1.2-1.84-1.78-2.35-1.82-1.58-3.79-2.88-6.23-3.42-1.62-.36-3.21-.95-4.72-1.63-.73-.32-1.14-1.14-.75-2.04.38-.88,1.04-1.12,1.96-.83,1.6.5,3.26.83,4.81,1.44,2.13.84,4.33.58,6.79,1.09-.41-1.58-.7-2.71-.92-3.54-3.75-.42-7.29-.49-10.68-1.24-22.92-5.07-40.4-17.73-52.3-38.01-2.03-3.46-1.71-4.59,1.51-7.02.09-.07.09-.25.21-.59-1.07,0-2.07,0-3.08,0-8.37-.06-16.32-1.88-23.78-5.7-.57-.29-1.18-.54-1.66-.95-.9-.76-.73-2.04.31-2.55.49-.24,1.08-.26,1.6-.46,2.16-.82,4.36-1.55,6.44-2.54,1.5-.72,2.68-1.92,3.36-3.9-9.12.9-17.77-.15-26.26-2.79-.37.54-.67.91-.9,1.31-10.21,17.48-22.57,33.36-36.16,48.3-2.26,2.48-3.6,4.97-3.8,8.42-.52,8.79-.99,17.57-.12,26.35.51,5.11,2.27,9.79,5.33,13.94,2.75,3.72,6.33,6.11,11.07,6.25,1.9.06,3.84-.13,5.71-.46,6.13-1.08,11.42-4.01,16.3-7.74,7.45-5.69,14.47-11.86,20.97-18.61,4.72-4.92,9.79-9.43,15.44-13.26,4.19-2.85,8.66-5.11,13.59-6.42,5.86-1.56,11.68-1.79,17.43.4,6.53,2.47,9.52,7.61,8.14,14.4-1.11,5.47-2.37,10.94-3.93,16.3-4.74,16.26-9.67,32.46-14.51,48.69-.28.94-.41,1.93-.67,3.23,7.27-.37,14.18-.73,21.5-1.11-1.73,8.08-3.4,15.83-5.08,23.65-8.04.65-15.84,1.27-23.82,1.91Zm-559.84-61.19c-.74.47-1.48.92-2.2,1.4-2.73,1.82-5.42,3.69-8.17,5.47-8.92,5.79-17.82,11.62-27.9,15.29-1.67.61-2.38,1.95-2.98,3.51-4.93,12.78-8.77,25.87-11.23,39.35-.64,3.51-1.06,7.07-1.63,10.94,2.32-.12,4.38-.19,6.42-.33,8.48-.57,16.93-.59,25.3,1.22,8.86,1.92,16.77,5.65,23.28,12.12,1.24,1.24,2.56,2.41,3.93,3.5,5.31,4.27,10.33,8.83,14.68,14.1.91,1.1,1.97,2.1,3.05,3.05,2.24,1.97,3.83,1.79,5.59-.63,1.97-2.72,3.87-5.49,5.83-8.21,6.32-8.76,12.34-17.71,17.37-27.29,2.52-4.81,5.11-9.6,7.6-14.43,5.07-9.86,8.95-20.14,11.07-31.05.19-.96.34-1.92.58-3.32-2.83,1.45-5.18,2.62-7.49,3.85-4.06,2.15-8.38,3.03-12.96,2.73-4.65-.3-9.19-1.19-13.6-2.66-10.49-3.5-19.16-9.8-26.75-17.66-3.33-3.44-6.39-7.14-9.77-10.96Zm425.16-136.13c-.17.24-.3.35-.35.49-.73,2.11-1.42,4.24-2.17,6.35-5.15,14.4-12.58,27.59-21.15,40.19-8.51,12.52-18.04,24.23-28.26,35.38-1.77,1.93-2.77,3.96-2.75,6.64.02,2.87-.32,5.74-.53,8.61-.44,5.99-.68,11.97.16,17.94.74,5.2,2.22,10.14,5.4,14.44,2.81,3.8,6.48,6.18,11.29,6.33,1.9.06,3.85-.1,5.71-.48,6.73-1.38,12.62-4.58,17.78-8.99,6.81-5.81,13.41-11.86,20.11-17.8,1.65-1.46,2.45-3.31,2.53-5.49.05-1.28.08-2.56.18-3.83,1.05-12.93,3.36-25.64,6.39-38.25,4.56-18.98,10.44-37.54,17.31-55.8.33-.87.6-1.75.93-2.73-10.74-4.88-21.62-4.68-32.57-3ZM83.33,190.3c-.07.35-.18.66-.17.97.12,3.91.12,7.84.43,11.74.6,7.54,2.17,14.9,5.65,21.67,5.59,10.85,14.37,17.17,26.78,17.71,7.57.33,14.5-1.94,20.82-6.09,9.82-6.45,18.54-14.18,26.11-23.16,11.87-14.08,20.88-30.02,29.67-46.09.2-.36.18-.85.32-1.52-4.96,2.25-9.64,4.37-14.48,6.57.57.54,1.14.9,1.43,1.42.23.42.31,1.14.1,1.53-.21.38-.86.67-1.34.71-.52.04-1.06-.31-1.6-.41-1.04-.19-2.08-.33-3.57-.56.67,1.05,1.14,1.61,1.41,2.24.25.6.59,1.42.37,1.91-.42.94-1.41.88-2.31.6-.76-.24-1.51-.56-2.29-.71-1.3-.24-2.62-.35-4.08-.54.11.59.11.83.21,1.03.4.83.66,1.68-.05,2.45-.77.84-1.64.3-2.44.02-1.65-.56-3.28-1.18-4.89-1.76-1.12,2.21-1.6,2.64-3.28,2.02-3.47-1.27-6.93-.66-10.38-.18-5.14.71-10.24,1.73-15.39,2.35-11.82,1.41-23.65,2.64-35.48,3.99-3.87.44-7.77.83-11.54,2.1Zm662.23-86.07c-.16.11-.32.21-.48.32.07,1.11.2,2.22.21,3.33.13,8.55.24,17.1.37,25.65.02,1.07-.24,1.94-1.46,2.07-1.03.11-1.56-.59-1.6-2.16-.04-1.36,0-2.72.03-4.08.18-8.32.29-16.63-.75-24.91-1.08-8.65-3.74-16.71-9.29-23.55-7.23-8.92-15.94-16.13-25.98-21.68-2.22-1.22-4.66-2.15-7.1-2.83-4.19-1.17-7.75,0-10.3,3.66-.86,1.25-1.62,2.57-2.38,3.88-.45.78-.84,1.63-1.94,1.44-1.24-.2-1.33-1.22-1.42-2.2-.06-.64-.04-1.29-.17-1.91-.29-1.42-.65-2.83-.99-4.25-1.42,3.22-2.79,6.26-4.08,9.33-.23.55-.14,1.25-.17,1.89-.15,4.39-.22,8.79-.44,13.18-.14,2.7-.49,5.38-.73,7.97.36.3.52.5.73.58.75.28,1.5.53,2.27.75,8.28,2.4,16,5.98,23.16,10.78,10.02,6.72,18.18,15.33,25.25,25.04,10.25,14.07,18.72,29.18,25.96,44.99,4.46,9.73,9.13,19.38,11.94,29.77.07.27.23.51.52,1.14.77-1.12,1.31-1.96,1.91-2.77.37-.5.73-1.21,1.23-1.36,1.37-.4,1.64-1.42,1.77-2.56.5-4.36,1.4-8.73,1.35-13.08-.21-19.08-4.17-37.43-11.58-55-3.29-7.78-7.8-14.85-13.59-21.05-.75-.8-1.49-1.59-2.24-2.39Zm-85.47,33.72c.58.26.78.38,1.01.45,7.44,2.21,15.01,3.05,22.75,2.26.39-.04.94-.01,1.14-.25,1.27-1.53,2.67-.46,3.97-.19.45.09,1.04.84,1.08,1.32.04.46-.53,1-.89,1.45-.36.46-.99.79-1.17,1.29-1.26,3.58-3.86,5.79-7.21,7.27-.59.26-1.18.54-2.09.96,1.09.46,1.81.79,2.55,1.07,9.49,3.51,19.15,4.05,28.99,1.73.54-.13,1.08-.3,1.64-.36.78-.09,1.44.15,1.69.99.23.79-.05,1.42-.75,1.84-.48.29-.98.54-1.47.8-2.53,1.37-5.07,2.72-7.58,4.13-2.2,1.23-2.2,1.36-.98,3.47,8.67,14.89,21.05,25.54,36.89,32.21,5.77,2.43,11.73,4.12,17.99,4.65,1.38.12,2.8.38,4.53-.24-1.46-3.72-2.65-7.37-4.28-10.82-5.75-12.18-12.78-23.6-21.01-34.28-16.63-21.56-36.85-38.72-61.51-50.49-.62-.3-1.27-.52-2.2-.9-3.2,11.11-7.55,21.54-13.08,31.64ZM39.26,215.66c-.42.55-.76.98-1.08,1.42-2.64,3.71-5.44,7.33-7.88,11.16-7.27,11.41-11.3,23.88-12.19,37.42-.62,9.46.3,18.68,3.57,27.6,4.36,11.9,12,20.81,23.94,25.66,1.01.41,2.07.68,3.37,1.1,3.76-19.44,10.75-37.55,19.42-54.83-.26-.37-.3-.45-.36-.5-.26-.19-.51-.38-.78-.55-11.72-7.64-19.56-18.26-23.72-31.54-1.69-5.39-2.8-10.96-4.29-16.94Zm51.1,118.99c-.1,1.06-.19,1.69-.2,2.32-.1,5.92.06,11.83,1.04,17.69,1.24,7.41,3.48,14.45,7.71,20.74,8.03,11.93,20.8,15.27,33.49,11.83,2.53-.69,4.37-2.28,5.47-4.67,1.46-3.16,2.25-6.5,2.28-9.97,0-.92-.16-1.98-.62-2.75-3.56-6.06-6.99-12.22-11.47-17.69-8.98-10.98-20.59-16.67-34.67-17.48-.93-.05-1.88,0-3.03,0Zm129.99-99.5c-.33-3.46-.61-7.77-1.19-12.04-.48-3.58-1.72-6.94-3.54-10.11-5.29-9.22-15.58-8.64-21.36-4.6-2.81,1.97-5.47,4.16-8.04,6.44-4.84,4.3-6.52,9.92-6.09,16.21.1,1.47.54,3.05,1.28,4.3,3.55,6.02,8.26,10.94,14.48,14.29,6.82,3.67,13.83,3.92,21.06,1.36,1.62-.57,2.5-1.53,2.59-3.3.2-3.91.49-7.81.79-12.56Zm222.63,114.05c.4.03.57.09.71.05,10.45-2.69,20.09-7.1,27.8-14.77,9.21-9.16,12.6-20.3,9.8-33.13-1.2-5.5-5.27-8.28-10.9-7.75-4.2.39-7.57,2.36-10.52,5.19-3.61,3.46-6.48,7.47-8.84,11.86-4.33,8.06-6.65,16.72-7.66,25.77-.47,4.21-.68,8.42-.39,12.78Zm144.27,4.47c-.21.06-.31.05-.36.1-.54.58-1.06,1.17-1.6,1.75-9.36,10.14-17.39,21.29-24.98,32.79-.35.53-.76,1.06-.98,1.64-1.73,4.67-1.05,5.91,2.62,8.17.93.57,2.04,1.01,3.12,1.16,3.45.48,6.86.33,10.1-1.18,8.22-3.83,14.06-9.86,17.09-18.48,1.24-3.54,1.54-7.14,1.01-10.86-.73-5.17-2.88-9.78-5.3-14.3-.17-.32-.51-.56-.73-.78Zm-30.61-242.06c-7.49.71-14.71,1.4-22.06,2.1-2.54,5.08-13.8,52.7-13.23,56.47,15.43-17.34,27.15-36.77,35.29-58.57Zm-12.99-24.64c6.36,2.18,12.54,3.47,19.15,3.1.29-1.7.59-3.25.8-4.82.61-4.45.99-8.89.25-13.37-.4-2.4-1.13-4.68-2.63-6.61-1.45-1.87-3.41-2.12-5.23-.61-1.09.91-2.08,2.01-2.89,3.18-4.03,5.82-6.71,12.31-9.45,19.13Zm-1.78,4.02c-2.25,6.61-4.34,12.78-6.55,19.28,7.91.05,15.28-1.01,22.74-2.37,1.21-3.89,2.4-7.67,3.61-11.56-6.69-1.81-13.06-3.53-19.8-5.35Zm66.91,6.53c-12.01-.89-23.64-.48-35.39-.74-.75,2.99-1.45,5.82-2.26,9.04,11.41-1.37,22.41-1.32,33.03,3.42,1.59-4.03,3.06-7.77,4.62-11.72Zm57.27-24.56c-.31-3.32-1.09-5.59-2.41-7.35-1.75-2.34-3.8-2.62-5.87-.61-1.24,1.21-2.48,2.56-3.28,4.07-2.57,4.87-4.94,9.84-7.35,14.79-.25.51-.26,1.13-.41,1.84,6.38.56,12.46,1.1,18.63,1.64.63-3.81,1.11-7.32,1.05-11.1-1.92.46-3.6.9-5.3,1.26-1.83.39-2.58.09-2.73-.94-.16-1.08.48-1.69,2.13-2.05.31-.07.64-.06.94-.15,1.51-.45,3.01-.92,4.59-1.41Z"/>
  <path class="cls-1" d="m423.91,103.88c6.15-9.41,10.64-19.43,13.86-30.2.63.26,1.12.44,1.6.67,2.95,1.41,5.89,2.86,8.85,4.26,7.11,3.36,14.09,2.87,20.94-.77,1.53-.81,3.03-1.68,4.9-2.72,0,.94.03,1.54,0,2.13-.33,5.91-.71,11.81-2.78,17.44-.49,1.35-1.01,2.7-1.64,3.98-3.52,7.18-9.19,11.54-17.13,12.76-9.18,1.41-17.82,0-25.63-5.29-.98-.66-1.88-1.44-2.96-2.27Z"/>
  <path class="cls-1" d="m312.48,88.58c3.3.23,6.06.35,8.8.62,6.83.67,13.3,2.64,19.45,5.66,1.98.98,2.45,1.68,1.87,2.71-.54.97-1.23,1.01-3.14.06-7.12-3.52-14.66-5.5-22.58-5.77-3.42-.12-6.85.28-10.27.53-.93.07-1.79.19-2.32-.72-.55-.94-.16-1.65.66-2.25.94-.69,1.76-1.6,2.79-2.12,8.71-4.4,17.95-7.15,27.59-8.49,17.65-2.45,35.08-1.02,52.28,3.45,5.67,1.47,11.03,3.76,16.11,6.69,5.6,3.24,11.21,6.46,16.83,9.67.82.47,1.53.97,1.01,2.06-.43.9-1.29,1.18-2.44.63-1.73-.82-3.44-1.7-5.1-2.66-2.77-1.59-5.54-3.2-8.23-4.92-8.54-5.46-17.85-8.84-27.81-10.59-9.78-1.71-19.62-2.77-29.57-2.42-11.5.41-22.71,2.35-33.43,6.67-.7.28-1.36.65-2.48,1.18Z"/>
  <path class="cls-1" d="m519.16,21.59c.65-.76,1.39-1.47,1.94-2.3,2.54-3.82,6-4.83,10.41-3.94,10.44,2.09,18.8,10.91,20.11,21.49.07.54.11,1.15-.08,1.63-.4,1.04-1.9,1.12-2.53.13-.28-.45-.37-1.04-.46-1.58-1.43-9.43-8.51-16.82-17.86-18.65-2.69-.52-4.95-.2-6.74,2.31-1.85,2.59-4.08,4.92-6.17,7.34-.55.65-1.07,1.55-2.15,1.01-1.04-.52-1.07-1.44-.88-2.47.77-4.32,1.51-8.65,2.25-12.98.32-1.84.16-2.45-1.35-3.16-7.43-3.48-15.09-6.25-23.45-5.99-5.9.19-11.28,2.06-15.87,5.91-1.98,1.67-3.56,3.65-4.71,5.98-.25.5-.42,1.18-.83,1.41-.55.31-1.37.47-1.93.27-.33-.12-.59-1.06-.52-1.58.09-.68.49-1.34.84-1.97,4.09-7.29,10.54-11.14,18.58-12.56,6.78-1.2,13.38-.18,19.82,1.98,3.02,1.01,5.98,2.24,8.89,3.55,3.39,1.52,4.19,3.24,3.53,6.91-.42,2.34-.83,4.68-1.24,7.02.13.08.26.16.4.24Z"/>
  <path class="cls-1" d="m583.9,55.01c-.95,2.94-1.15,5.79-1.33,8.65-.07,1.12.09,2.27-.14,3.35-.12.56-.75,1.27-1.29,1.43-.88.26-1.51-.38-1.66-1.29-.25-1.5-.39-3.01-.7-4.5-.28-1.32-.7-2.62-1.11-3.91-.69-2.19-.32-2.62,2.08-2.39.14.01.28-.08.5-.15.09-.34.22-.71.3-1.1.64-2.92,1.57-3.55,4.54-3.09,3.65.57,7.17,1.61,10.51,3.19,6.67,3.15,12.06,7.77,16.14,13.93.35.53.83,1.08.9,1.66.06.52-.22,1.33-.62,1.58-.41.26-1.29.21-1.71-.07-.56-.38-.87-1.11-1.28-1.7-5.46-7.92-12.87-12.98-22.24-15.17-.91-.21-1.86-.28-2.9-.43Z"/>
</svg>